<svg id="visual" viewBox="0 0 960 540" width="960" height="540" xmlns="http://www.w3.org/2000/svg" xmlns:xlink="http://www.w3.org/1999/xlink" version="1.1"><rect x="0" y="0" width="960" height="540" fill="#E4FFE1"></rect><defs><linearGradient id="grad1_0" x1="43.8%" y1="0%" x2="100%" y2="100%"><stop offset="14.444444444444446%" stop-color="#e4ffe1" stop-opacity="1"></stop><stop offset="85.55555555555554%" stop-color="#e4ffe1" stop-opacity="1"></stop></linearGradient></defs><defs><linearGradient id="grad2_0" x1="0%" y1="0%" x2="56.3%" y2="100%"><stop offset="14.444444444444446%" stop-color="#e4ffe1" stop-opacity="1"></stop><stop offset="85.55555555555554%" stop-color="#e4ffe1" stop-opacity="1"></stop></linearGradient></defs><g transform="translate(960, 0)"><path d="M0 432C-38.6 431.4 -77.2 430.8 -111.8 417.3C-146.4 403.7 -176.9 377.2 -203 351.6C-229.1 326 -250.7 301.5 -279.3 279.3C-307.9 257.2 -343.3 237.5 -360.3 208C-377.2 178.5 -375.6 139.3 -384.4 103C-393.3 66.7 -412.7 33.4 -432 0L0 0Z" fill="#6A8D73"></path></g><g transform="translate(0, 540)"><path d="M0 -432C34.6 -414.6 69.3 -397.2 103.3 -385.4C137.3 -373.6 170.7 -367.3 206 -356.8C241.3 -346.3 278.6 -331.4 305.5 -305.5C332.4 -279.5 348.9 -242.5 357.7 -206.5C366.5 -170.5 367.5 -135.7 378.6 -101.5C389.7 -67.2 410.9 -33.6 432 0L0 0Z" fill="#6A8D73"></path></g></svg>