<svg width="540" height="780" viewBox="0 0 540 780" fill="none" xmlns="http://www.w3.org/2000/svg">
<g clip-path="url(#clip0_39_24)">
<path d="M253 411L322 505L307 397L253 411Z" fill="#82BA7F" stroke="#82BA7F" stroke-linejoin="bevel"/>
<path d="M322 505H324L307 397L322 505Z" fill="#719C78" stroke="#719C78" stroke-linejoin="bevel"/>
<path d="M253 411L201 449L322 505L253 411Z" fill="#7CB07D" stroke="#7CB07D" stroke-linejoin="bevel"/>
<path d="M194 434V437L201 449L194 434Z" fill="#6C9275" stroke="#6C9275" stroke-linejoin="bevel"/>
<path d="M253 411L194 434L201 449L253 411Z" fill="#6C9275" stroke="#6C9275" stroke-linejoin="bevel"/>
<path d="M146 525L221 533L201 449L146 525Z" fill="#86BF80" stroke="#86BF80" stroke-linejoin="bevel"/>
<path d="M201 449L221 533L322 505L201 449Z" fill="#7CB07D" stroke="#7CB07D" stroke-linejoin="bevel"/>
<path d="M322 505L314 559L324 505H322Z" fill="#719C78" stroke="#719C78" stroke-linejoin="bevel"/>
<path d="M256 555L314 559L322 505L256 555Z" fill="#79AB7C" stroke="#79AB7C" stroke-linejoin="bevel"/>
<path d="M221 533L256 555L322 505L221 533Z" fill="#79AB7C" stroke="#79AB7C" stroke-linejoin="bevel"/>
<path d="M256 555L298 569L314 559L256 555Z" fill="#86BF80" stroke="#86BF80" stroke-linejoin="bevel"/>
<path d="M454 492L410 426L324 505L454 492Z" fill="#719C78" stroke="#719C78" stroke-linejoin="bevel"/>
<path d="M324 505L410 426L307 397L324 505Z" fill="#79AB7C" stroke="#79AB7C" stroke-linejoin="bevel"/>
<path d="M410 426L393 382L307 397L410 426Z" fill="#73A17A" stroke="#73A17A" stroke-linejoin="bevel"/>
<path d="M188 646L285 587L256 555L188 646Z" fill="#79AB7C" stroke="#79AB7C" stroke-linejoin="bevel"/>
<path d="M256 555L285 587L298 569L256 555Z" fill="#7CB07D" stroke="#7CB07D" stroke-linejoin="bevel"/>
<path d="M298 569L350 614L314 559L298 569Z" fill="#7CB07D" stroke="#7CB07D" stroke-linejoin="bevel"/>
<path d="M425 385L373 329L393 382L425 385Z" fill="#79AB7C" stroke="#79AB7C" stroke-linejoin="bevel"/>
<path d="M393 382L373 329L307 397L393 382Z" fill="#6A8D73" stroke="#6A8D73" stroke-linejoin="bevel"/>
<path d="M307 397L205 305L253 411L307 397Z" fill="#73A17A" stroke="#73A17A" stroke-linejoin="bevel"/>
<path d="M157 380L149 403L194 434L157 380Z" fill="#79AB7C" stroke="#79AB7C" stroke-linejoin="bevel"/>
<path d="M350 614L398 559H314L350 614Z" fill="#6A8D73" stroke="#6A8D73" stroke-linejoin="bevel"/>
<path d="M314 559H398L324 505L314 559Z" fill="#86BF80" stroke="#86BF80" stroke-linejoin="bevel"/>
<path d="M410 426L425 385L393 382L410 426Z" fill="#82BA7F" stroke="#82BA7F" stroke-linejoin="bevel"/>
<path d="M474 483L425 385L410 426L474 483Z" fill="#86BF80" stroke="#86BF80" stroke-linejoin="bevel"/>
<path d="M194 434L143 416L194 437V434Z" fill="#79AB7C" stroke="#79AB7C" stroke-linejoin="bevel"/>
<path d="M194 437L146 525L201 449L194 437Z" fill="#82BA7F" stroke="#82BA7F" stroke-linejoin="bevel"/>
<path d="M157 380L194 434L253 411L157 380Z" fill="#6A8D73" stroke="#6A8D73" stroke-linejoin="bevel"/>
<path d="M149 403L143 416L194 434L149 403Z" fill="#6C9275" stroke="#6C9275" stroke-linejoin="bevel"/>
<path d="M170 341L157 380L253 411L170 341Z" fill="#73A17A" stroke="#73A17A" stroke-linejoin="bevel"/>
<path d="M149 403L107 402L143 416L149 403Z" fill="#79AB7C" stroke="#79AB7C" stroke-linejoin="bevel"/>
<path d="M373 329L342 300L307 397L373 329Z" fill="#6A8D73" stroke="#6A8D73" stroke-linejoin="bevel"/>
<path d="M143 416L146 525L194 437L143 416Z" fill="#6C9275" stroke="#6C9275" stroke-linejoin="bevel"/>
<path d="M221 533L168 604L256 555L221 533Z" fill="#73A17A" stroke="#73A17A" stroke-linejoin="bevel"/>
<path d="M398 559L454 492L324 505L398 559Z" fill="#73A17A" stroke="#73A17A" stroke-linejoin="bevel"/>
<path d="M205 305L170 341L253 411L205 305Z" fill="#73A17A" stroke="#73A17A" stroke-linejoin="bevel"/>
<path d="M157 380L107 402L149 403L157 380Z" fill="#86BF80" stroke="#86BF80" stroke-linejoin="bevel"/>
<path d="M285 587L350 614L298 569L285 587Z" fill="#7CB07D" stroke="#7CB07D" stroke-linejoin="bevel"/>
<path d="M289 266L205 305L307 397L289 266Z" fill="#6A8D73" stroke="#6A8D73" stroke-linejoin="bevel"/>
<path d="M285 587L349 619L350 614L285 587Z" fill="#7FB57E" stroke="#7FB57E" stroke-linejoin="bevel"/>
<path d="M350 614L411 600L398 559L350 614Z" fill="#6C9275" stroke="#6C9275" stroke-linejoin="bevel"/>
<path d="M469 534L474 483L454 492L469 534Z" fill="#7FB57E" stroke="#7FB57E" stroke-linejoin="bevel"/>
<path d="M266 707L349 619L285 587L266 707Z" fill="#6E9777" stroke="#6E9777" stroke-linejoin="bevel"/>
<path d="M469 534L454 492L398 559L469 534Z" fill="#79AB7C" stroke="#79AB7C" stroke-linejoin="bevel"/>
<path d="M454 492L474 483L410 426L454 492Z" fill="#719C78" stroke="#719C78" stroke-linejoin="bevel"/>
<path d="M410 607L411 600L350 614L410 607Z" fill="#719C78" stroke="#719C78" stroke-linejoin="bevel"/>
<path d="M342 300L289 266L307 397L342 300Z" fill="#719C78" stroke="#719C78" stroke-linejoin="bevel"/>
<path d="M373 329L376 284L342 300L373 329Z" fill="#79AB7C" stroke="#79AB7C" stroke-linejoin="bevel"/>
<path d="M342 300L320 221L289 266L342 300Z" fill="#82BA7F" stroke="#82BA7F" stroke-linejoin="bevel"/>
<path d="M466 284H376L373 329L466 284Z" fill="#86BF80" stroke="#86BF80" stroke-linejoin="bevel"/>
<path d="M466 284L373 329L425 385L466 284Z" fill="#79AB7C" stroke="#79AB7C" stroke-linejoin="bevel"/>
<path d="M289 266L236 272L205 305L289 266Z" fill="#79AB7C" stroke="#79AB7C" stroke-linejoin="bevel"/>
<path d="M83 264L107 402L170 341L83 264Z" fill="#719C78" stroke="#719C78" stroke-linejoin="bevel"/>
<path d="M349 619L410 607L350 614L349 619Z" fill="#719C78" stroke="#719C78" stroke-linejoin="bevel"/>
<path d="M411 600L469 534L398 559L411 600Z" fill="#6C9275" stroke="#6C9275" stroke-linejoin="bevel"/>
<path d="M170 341L107 402L157 380L170 341Z" fill="#7CB07D" stroke="#7CB07D" stroke-linejoin="bevel"/>
<path d="M143 416L79 431L146 525L143 416Z" fill="#82BA7F" stroke="#82BA7F" stroke-linejoin="bevel"/>
<path d="M203 268L170 341L205 305L203 268Z" fill="#86BF80" stroke="#86BF80" stroke-linejoin="bevel"/>
<path d="M520 548L469 534L517 555L520 548Z" fill="#86BF80" stroke="#86BF80" stroke-linejoin="bevel"/>
<path d="M84 608L168 604L146 525L84 608Z" fill="#7CB07D" stroke="#7CB07D" stroke-linejoin="bevel"/>
<path d="M146 525L168 604L221 533L146 525Z" fill="#73A17A" stroke="#73A17A" stroke-linejoin="bevel"/>
<path d="M211 205L219 269L236 272L211 205Z" fill="#86BF80" stroke="#86BF80" stroke-linejoin="bevel"/>
<path d="M236 272L219 269L205 305L236 272Z" fill="#6C9275" stroke="#6C9275" stroke-linejoin="bevel"/>
<path d="M157 233L203 268L211 205L157 233Z" fill="#7CB07D" stroke="#7CB07D" stroke-linejoin="bevel"/>
<path d="M219 269L203 268L205 305L219 269Z" fill="#6C9275" stroke="#6C9275" stroke-linejoin="bevel"/>
<path d="M528 435L480 364L425 385L528 435Z" fill="#6C9275" stroke="#6C9275" stroke-linejoin="bevel"/>
<path d="M8 352L79 431L107 402L8 352Z" fill="#6C9275" stroke="#6C9275" stroke-linejoin="bevel"/>
<path d="M107 402L79 431L143 416L107 402Z" fill="#6E9777" stroke="#6E9777" stroke-linejoin="bevel"/>
<path d="M170 679L188 646L135 685L170 679Z" fill="#73A17A" stroke="#73A17A" stroke-linejoin="bevel"/>
<path d="M168 604L188 646L256 555L168 604Z" fill="#79AB7C" stroke="#79AB7C" stroke-linejoin="bevel"/>
<path d="M79 431L75 530L146 525L79 431Z" fill="#719C78" stroke="#719C78" stroke-linejoin="bevel"/>
<path d="M409 213L320 221L376 284L409 213Z" fill="#86BF80" stroke="#86BF80" stroke-linejoin="bevel"/>
<path d="M376 284L320 221L342 300L376 284Z" fill="#7FB57E" stroke="#7FB57E" stroke-linejoin="bevel"/>
<path d="M289 266L211 205L236 272L289 266Z" fill="#76A67B" stroke="#76A67B" stroke-linejoin="bevel"/>
<path d="M474 483L528 435L425 385L474 483Z" fill="#73A17A" stroke="#73A17A" stroke-linejoin="bevel"/>
<path d="M540 470L528 435L474 483L540 470Z" fill="#719C78" stroke="#719C78" stroke-linejoin="bevel"/>
<path d="M540 394L496 331L480 364L540 394Z" fill="#82BA7F" stroke="#82BA7F" stroke-linejoin="bevel"/>
<path d="M480 364L466 284L425 385L480 364Z" fill="#6A8D73" stroke="#6A8D73" stroke-linejoin="bevel"/>
<path d="M79 431L65 529L75 530L79 431Z" fill="#82BA7F" stroke="#82BA7F" stroke-linejoin="bevel"/>
<path d="M135 685L188 646L168 604L135 685Z" fill="#76A67B" stroke="#76A67B" stroke-linejoin="bevel"/>
<path d="M496 331L466 284L480 364L496 331Z" fill="#719C78" stroke="#719C78" stroke-linejoin="bevel"/>
<path d="M517 555L469 534L411 600L517 555Z" fill="#6C9275" stroke="#6C9275" stroke-linejoin="bevel"/>
<path d="M469 534L520 548L474 483L469 534Z" fill="#6C9275" stroke="#6C9275" stroke-linejoin="bevel"/>
<path d="M410 607L517 555L411 600L410 607Z" fill="#6C9275" stroke="#6C9275" stroke-linejoin="bevel"/>
<path d="M520 548L540 470L474 483L520 548Z" fill="#76A67B" stroke="#76A67B" stroke-linejoin="bevel"/>
<path d="M528 435L540 402L480 364L528 435Z" fill="#6C9275" stroke="#6C9275" stroke-linejoin="bevel"/>
<path d="M540 470V402L528 435L540 470Z" fill="#6E9777" stroke="#6E9777" stroke-linejoin="bevel"/>
<path d="M540 402V394L480 364L540 402Z" fill="#73A17A" stroke="#73A17A" stroke-linejoin="bevel"/>
<path d="M496 331L540 324L466 284L496 331Z" fill="#7CB07D" stroke="#7CB07D" stroke-linejoin="bevel"/>
<path d="M188 646L266 707L285 587L188 646Z" fill="#7CB07D" stroke="#7CB07D" stroke-linejoin="bevel"/>
<path d="M349 619L403 702L410 607L349 619Z" fill="#82BA7F" stroke="#82BA7F" stroke-linejoin="bevel"/>
<path d="M410 607L540 577L517 555L410 607Z" fill="#7CB07D" stroke="#7CB07D" stroke-linejoin="bevel"/>
<path d="M84 608L146 525L75 530L84 608Z" fill="#6A8D73" stroke="#6A8D73" stroke-linejoin="bevel"/>
<path d="M188 646L244 711L266 707L188 646Z" fill="#6E9777" stroke="#6E9777" stroke-linejoin="bevel"/>
<path d="M0 522L57 560L65 529L0 522Z" fill="#82BA7F" stroke="#82BA7F" stroke-linejoin="bevel"/>
<path d="M65 529L57 560L75 530L65 529Z" fill="#73A17A" stroke="#73A17A" stroke-linejoin="bevel"/>
<path d="M211 205L203 268L219 269L211 205Z" fill="#79AB7C" stroke="#79AB7C" stroke-linejoin="bevel"/>
<path d="M203 268L157 233L170 341L203 268Z" fill="#86BF80" stroke="#86BF80" stroke-linejoin="bevel"/>
<path d="M57 560L84 608L75 530L57 560Z" fill="#79AB7C" stroke="#79AB7C" stroke-linejoin="bevel"/>
<path d="M0 650L89 617L84 608L0 650Z" fill="#7CB07D" stroke="#7CB07D" stroke-linejoin="bevel"/>
<path d="M84 608L89 617L168 604L84 608Z" fill="#6A8D73" stroke="#6A8D73" stroke-linejoin="bevel"/>
<path d="M170 679L244 711L188 646L170 679Z" fill="#6C9275" stroke="#6C9275" stroke-linejoin="bevel"/>
<path d="M320 221L211 205L289 266L320 221Z" fill="#7FB57E" stroke="#7FB57E" stroke-linejoin="bevel"/>
<path d="M520 548L540 543V470L520 548Z" fill="#7FB57E" stroke="#7FB57E" stroke-linejoin="bevel"/>
<path d="M517 555L540 543L520 548L517 555Z" fill="#7CB07D" stroke="#7CB07D" stroke-linejoin="bevel"/>
<path d="M540 577V543L517 555L540 577Z" fill="#7FB57E" stroke="#7FB57E" stroke-linejoin="bevel"/>
<path d="M292 780L311 716L266 707L292 780Z" fill="#73A17A" stroke="#73A17A" stroke-linejoin="bevel"/>
<path d="M266 707L311 716L349 619L266 707Z" fill="#7FB57E" stroke="#7FB57E" stroke-linejoin="bevel"/>
<path d="M466 284L409 213L376 284H466Z" fill="#82BA7F" stroke="#82BA7F" stroke-linejoin="bevel"/>
<path d="M271 140L208 196L211 205L271 140Z" fill="#82BA7F" stroke="#82BA7F" stroke-linejoin="bevel"/>
<path d="M311 716L403 702L349 619L311 716Z" fill="#86BF80" stroke="#86BF80" stroke-linejoin="bevel"/>
<path d="M271 140L211 205L320 221L271 140Z" fill="#6A8D73" stroke="#6A8D73" stroke-linejoin="bevel"/>
<path d="M211 205L208 196L157 233L211 205Z" fill="#7FB57E" stroke="#7FB57E" stroke-linejoin="bevel"/>
<path d="M456 706L540 577L410 607L456 706Z" fill="#76A67B" stroke="#76A67B" stroke-linejoin="bevel"/>
<path d="M403 702L426 696L410 607L403 702Z" fill="#76A67B" stroke="#76A67B" stroke-linejoin="bevel"/>
<path d="M540 394V324L496 331L540 394Z" fill="#7FB57E" stroke="#7FB57E" stroke-linejoin="bevel"/>
<path d="M466 284L465 185L409 213L466 284Z" fill="#82BA7F" stroke="#82BA7F" stroke-linejoin="bevel"/>
<path d="M371 746L412 707L403 702L371 746Z" fill="#6C9275" stroke="#6C9275" stroke-linejoin="bevel"/>
<path d="M403 702L412 707L426 696L403 702Z" fill="#7CB07D" stroke="#7CB07D" stroke-linejoin="bevel"/>
<path d="M89 617L135 685L168 604L89 617Z" fill="#73A17A" stroke="#73A17A" stroke-linejoin="bevel"/>
<path d="M170 679L152 758L244 711L170 679Z" fill="#6E9777" stroke="#6E9777" stroke-linejoin="bevel"/>
<path d="M152 117L123 231L157 233L152 117Z" fill="#82BA7F" stroke="#82BA7F" stroke-linejoin="bevel"/>
<path d="M157 233L83 264L170 341L157 233Z" fill="#73A17A" stroke="#73A17A" stroke-linejoin="bevel"/>
<path d="M123 231L83 264L157 233L123 231Z" fill="#719C78" stroke="#719C78" stroke-linejoin="bevel"/>
<path d="M79 431L0 457L65 529L79 431Z" fill="#7CB07D" stroke="#7CB07D" stroke-linejoin="bevel"/>
<path d="M465 185L396 187L409 213L465 185Z" fill="#6A8D73" stroke="#6A8D73" stroke-linejoin="bevel"/>
<path d="M409 213L396 187L320 221L409 213Z" fill="#79AB7C" stroke="#79AB7C" stroke-linejoin="bevel"/>
<path d="M69 143L94 239L123 231L69 143Z" fill="#7CB07D" stroke="#7CB07D" stroke-linejoin="bevel"/>
<path d="M123 231L94 239L83 264L123 231Z" fill="#86BF80" stroke="#86BF80" stroke-linejoin="bevel"/>
<path d="M8 352L0 457L79 431L8 352Z" fill="#73A17A" stroke="#73A17A" stroke-linejoin="bevel"/>
<path d="M412 707L456 706L426 696L412 707Z" fill="#719C78" stroke="#719C78" stroke-linejoin="bevel"/>
<path d="M426 696L456 706L410 607L426 696Z" fill="#6A8D73" stroke="#6A8D73" stroke-linejoin="bevel"/>
<path d="M440 780L456 706L412 707L440 780Z" fill="#719C78" stroke="#719C78" stroke-linejoin="bevel"/>
<path d="M0 457V522L65 529L0 457Z" fill="#6C9275" stroke="#6C9275" stroke-linejoin="bevel"/>
<path d="M57 560L0 606L84 608L57 560Z" fill="#6E9777" stroke="#6E9777" stroke-linejoin="bevel"/>
<path d="M89 617L95 717L135 685L89 617Z" fill="#719C78" stroke="#719C78" stroke-linejoin="bevel"/>
<path d="M345 780L371 746L311 716L345 780Z" fill="#79AB7C" stroke="#79AB7C" stroke-linejoin="bevel"/>
<path d="M311 716L371 746L403 702L311 716Z" fill="#73A17A" stroke="#73A17A" stroke-linejoin="bevel"/>
<path d="M292 780L266 707L244 711L292 780Z" fill="#6C9275" stroke="#6C9275" stroke-linejoin="bevel"/>
<path d="M0 347L8 352L0 327V347Z" fill="#6E9777" stroke="#6E9777" stroke-linejoin="bevel"/>
<path d="M83 264L8 352L107 402L83 264Z" fill="#79AB7C" stroke="#79AB7C" stroke-linejoin="bevel"/>
<path d="M0 522V556L57 560L0 522Z" fill="#73A17A" stroke="#73A17A" stroke-linejoin="bevel"/>
<path d="M0 327L8 352L83 264L0 327Z" fill="#719C78" stroke="#719C78" stroke-linejoin="bevel"/>
<path d="M8 352L0 347V457L8 352Z" fill="#6A8D73" stroke="#6A8D73" stroke-linejoin="bevel"/>
<path d="M396 187L271 140L320 221L396 187Z" fill="#6A8D73" stroke="#6A8D73" stroke-linejoin="bevel"/>
<path d="M208 196L152 117L157 233L208 196Z" fill="#7CB07D" stroke="#7CB07D" stroke-linejoin="bevel"/>
<path d="M271 140L231 142L208 196L271 140Z" fill="#76A67B" stroke="#76A67B" stroke-linejoin="bevel"/>
<path d="M0 207V327L83 264L0 207Z" fill="#79AB7C" stroke="#79AB7C" stroke-linejoin="bevel"/>
<path d="M518 207L465 185L466 284L518 207Z" fill="#6C9275" stroke="#6C9275" stroke-linejoin="bevel"/>
<path d="M396 187L314 80L271 140L396 187Z" fill="#86BF80" stroke="#86BF80" stroke-linejoin="bevel"/>
<path d="M151 780H292L244 711L151 780Z" fill="#82BA7F" stroke="#82BA7F" stroke-linejoin="bevel"/>
<path d="M314 80L245 131L271 140L314 80Z" fill="#6C9275" stroke="#6C9275" stroke-linejoin="bevel"/>
<path d="M271 140L245 131L231 142L271 140Z" fill="#82BA7F" stroke="#82BA7F" stroke-linejoin="bevel"/>
<path d="M231 142L201 116L208 196L231 142Z" fill="#7FB57E" stroke="#7FB57E" stroke-linejoin="bevel"/>
<path d="M292 780H313L311 716L292 780Z" fill="#719C78" stroke="#719C78" stroke-linejoin="bevel"/>
<path d="M371 746L428 780L412 707L371 746Z" fill="#6A8D73" stroke="#6A8D73" stroke-linejoin="bevel"/>
<path d="M540 324V240L466 284L540 324Z" fill="#6C9275" stroke="#6C9275" stroke-linejoin="bevel"/>
<path d="M0 686L95 717L89 617L0 686Z" fill="#6E9777" stroke="#6E9777" stroke-linejoin="bevel"/>
<path d="M135 685L152 758L170 679L135 685Z" fill="#7FB57E" stroke="#7FB57E" stroke-linejoin="bevel"/>
<path d="M0 556V606L57 560L0 556Z" fill="#7CB07D" stroke="#7CB07D" stroke-linejoin="bevel"/>
<path d="M313 780H345L311 716L313 780Z" fill="#6C9275" stroke="#6C9275" stroke-linejoin="bevel"/>
<path d="M540 240L518 207L466 284L540 240Z" fill="#79AB7C" stroke="#79AB7C" stroke-linejoin="bevel"/>
<path d="M95 717L152 758L135 685L95 717Z" fill="#73A17A" stroke="#73A17A" stroke-linejoin="bevel"/>
<path d="M540 771V694L456 706L540 771Z" fill="#73A17A" stroke="#73A17A" stroke-linejoin="bevel"/>
<path d="M456 706L540 694V577L456 706Z" fill="#7CB07D" stroke="#7CB07D" stroke-linejoin="bevel"/>
<path d="M280 38L201 116L245 131L280 38Z" fill="#79AB7C" stroke="#79AB7C" stroke-linejoin="bevel"/>
<path d="M245 131L201 116L231 142L245 131Z" fill="#6A8D73" stroke="#6A8D73" stroke-linejoin="bevel"/>
<path d="M94 239L0 207L83 264L94 239Z" fill="#6A8D73" stroke="#6A8D73" stroke-linejoin="bevel"/>
<path d="M0 606V650L84 608L0 606Z" fill="#6C9275" stroke="#6C9275" stroke-linejoin="bevel"/>
<path d="M105 780H151L152 758L105 780Z" fill="#6E9777" stroke="#6E9777" stroke-linejoin="bevel"/>
<path d="M345 780H428L371 746L345 780Z" fill="#7FB57E" stroke="#7FB57E" stroke-linejoin="bevel"/>
<path d="M96 767L152 758L95 717L96 767Z" fill="#6C9275" stroke="#6C9275" stroke-linejoin="bevel"/>
<path d="M152 758L151 780L244 711L152 758Z" fill="#82BA7F" stroke="#82BA7F" stroke-linejoin="bevel"/>
<path d="M428 780H440L412 707L428 780Z" fill="#6A8D73" stroke="#6A8D73" stroke-linejoin="bevel"/>
<path d="M518 207L540 193L465 185L518 207Z" fill="#86BF80" stroke="#86BF80" stroke-linejoin="bevel"/>
<path d="M465 185L468 132L396 187L465 185Z" fill="#76A67B" stroke="#76A67B" stroke-linejoin="bevel"/>
<path d="M540 240V193L518 207L540 240Z" fill="#82BA7F" stroke="#82BA7F" stroke-linejoin="bevel"/>
<path d="M201 116L152 117L208 196L201 116Z" fill="#6E9777" stroke="#6E9777" stroke-linejoin="bevel"/>
<path d="M540 193L468 132L465 185L540 193Z" fill="#73A17A" stroke="#73A17A" stroke-linejoin="bevel"/>
<path d="M67 780L96 767L95 717L67 780Z" fill="#6E9777" stroke="#6E9777" stroke-linejoin="bevel"/>
<path d="M0 650V686L89 617L0 650Z" fill="#86BF80" stroke="#86BF80" stroke-linejoin="bevel"/>
<path d="M414 73L314 80L396 187L414 73Z" fill="#82BA7F" stroke="#82BA7F" stroke-linejoin="bevel"/>
<path d="M151 63L114 96L152 117L151 63Z" fill="#79AB7C" stroke="#79AB7C" stroke-linejoin="bevel"/>
<path d="M67 780H105L96 767L67 780Z" fill="#82BA7F" stroke="#82BA7F" stroke-linejoin="bevel"/>
<path d="M96 767L105 780L152 758L96 767Z" fill="#82BA7F" stroke="#82BA7F" stroke-linejoin="bevel"/>
<path d="M114 96L98 126L152 117L114 96Z" fill="#73A17A" stroke="#73A17A" stroke-linejoin="bevel"/>
<path d="M152 117L98 126L123 231L152 117Z" fill="#6A8D73" stroke="#6A8D73" stroke-linejoin="bevel"/>
<path d="M0 189V207L94 239L0 189Z" fill="#76A67B" stroke="#76A67B" stroke-linejoin="bevel"/>
<path d="M98 126L69 143L123 231L98 126Z" fill="#82BA7F" stroke="#82BA7F" stroke-linejoin="bevel"/>
<path d="M69 143L0 189L94 239L69 143Z" fill="#79AB7C" stroke="#79AB7C" stroke-linejoin="bevel"/>
<path d="M468 132L432 84L396 187L468 132Z" fill="#73A17A" stroke="#73A17A" stroke-linejoin="bevel"/>
<path d="M433 75L432 84L482 62L433 75Z" fill="#719C78" stroke="#719C78" stroke-linejoin="bevel"/>
<path d="M0 686L67 780L95 717L0 686Z" fill="#6C9275" stroke="#6C9275" stroke-linejoin="bevel"/>
<path d="M432 84L414 73L396 187L432 84Z" fill="#7CB07D" stroke="#7CB07D" stroke-linejoin="bevel"/>
<path d="M151 63L152 117L201 116L151 63Z" fill="#6A8D73" stroke="#6A8D73" stroke-linejoin="bevel"/>
<path d="M98 126L114 96L69 143L98 126Z" fill="#7CB07D" stroke="#7CB07D" stroke-linejoin="bevel"/>
<path d="M69 143L6 126L0 189L69 143Z" fill="#6E9777" stroke="#6E9777" stroke-linejoin="bevel"/>
<path d="M440 780L540 771L456 706L440 780Z" fill="#79AB7C" stroke="#79AB7C" stroke-linejoin="bevel"/>
<path d="M482 62L432 84L468 132L482 62Z" fill="#82BA7F" stroke="#82BA7F" stroke-linejoin="bevel"/>
<path d="M432 84L433 75L414 73L432 84Z" fill="#82BA7F" stroke="#82BA7F" stroke-linejoin="bevel"/>
<path d="M440 780H540V771L440 780Z" fill="#719C78" stroke="#719C78" stroke-linejoin="bevel"/>
<path d="M540 193V122L468 132L540 193Z" fill="#7CB07D" stroke="#7CB07D" stroke-linejoin="bevel"/>
<path d="M255 20L151 63L201 116L255 20Z" fill="#7FB57E" stroke="#7FB57E" stroke-linejoin="bevel"/>
<path d="M114 96L6 126L69 143L114 96Z" fill="#79AB7C" stroke="#79AB7C" stroke-linejoin="bevel"/>
<path d="M280 38L245 131L314 80L280 38Z" fill="#6C9275" stroke="#6C9275" stroke-linejoin="bevel"/>
<path d="M325 0L280 38L314 80L325 0Z" fill="#79AB7C" stroke="#79AB7C" stroke-linejoin="bevel"/>
<path d="M255 20L280 38L261 0L255 20Z" fill="#76A67B" stroke="#76A67B" stroke-linejoin="bevel"/>
<path d="M540 122L482 62L468 132L540 122Z" fill="#6E9777" stroke="#6E9777" stroke-linejoin="bevel"/>
<path d="M400 0L369 14L414 73L400 0Z" fill="#76A67B" stroke="#76A67B" stroke-linejoin="bevel"/>
<path d="M369 14L314 80L414 73L369 14Z" fill="#6C9275" stroke="#6C9275" stroke-linejoin="bevel"/>
<path d="M280 38L255 20L201 116L280 38Z" fill="#76A67B" stroke="#76A67B" stroke-linejoin="bevel"/>
<path d="M0 125L6 126L0 28V125Z" fill="#76A67B" stroke="#76A67B" stroke-linejoin="bevel"/>
<path d="M0 686V780H67L0 686Z" fill="#6A8D73" stroke="#6A8D73" stroke-linejoin="bevel"/>
<path d="M0 28L6 126L114 96L0 28Z" fill="#86BF80" stroke="#86BF80" stroke-linejoin="bevel"/>
<path d="M6 126L0 125V189L6 126Z" fill="#6A8D73" stroke="#6A8D73" stroke-linejoin="bevel"/>
<path d="M87 0L114 96L151 63L87 0Z" fill="#76A67B" stroke="#76A67B" stroke-linejoin="bevel"/>
<path d="M400 0L414 73L433 75L400 0Z" fill="#6E9777" stroke="#6E9777" stroke-linejoin="bevel"/>
<path d="M325 0H261L280 38L325 0Z" fill="#86BF80" stroke="#86BF80" stroke-linejoin="bevel"/>
<path d="M255 20L173 10L151 63L255 20Z" fill="#719C78" stroke="#719C78" stroke-linejoin="bevel"/>
<path d="M369 14L325 0L314 80L369 14Z" fill="#6C9275" stroke="#6C9275" stroke-linejoin="bevel"/>
<path d="M186 0L173 10L255 20L186 0Z" fill="#719C78" stroke="#719C78" stroke-linejoin="bevel"/>
<path d="M261 0H186L255 20L261 0Z" fill="#76A67B" stroke="#76A67B" stroke-linejoin="bevel"/>
<path d="M173 10L129 0L151 63L173 10Z" fill="#7FB57E" stroke="#7FB57E" stroke-linejoin="bevel"/>
<path d="M471 0H400L433 75L471 0Z" fill="#7FB57E" stroke="#7FB57E" stroke-linejoin="bevel"/>
<path d="M369 14L400 0H325L369 14Z" fill="#6C9275" stroke="#6C9275" stroke-linejoin="bevel"/>
<path d="M186 0H129L173 10L186 0Z" fill="#7FB57E" stroke="#7FB57E" stroke-linejoin="bevel"/>
<path d="M540 28L471 0L482 62L540 28Z" fill="#82BA7F" stroke="#82BA7F" stroke-linejoin="bevel"/>
<path d="M482 62L471 0L433 75L482 62Z" fill="#7FB57E" stroke="#7FB57E" stroke-linejoin="bevel"/>
<path d="M540 122V28L482 62L540 122Z" fill="#719C78" stroke="#719C78" stroke-linejoin="bevel"/>
<path d="M129 0H87L151 63L129 0Z" fill="#82BA7F" stroke="#82BA7F" stroke-linejoin="bevel"/>
<path d="M540 28V0H471L540 28Z" fill="#7CB07D" stroke="#7CB07D" stroke-linejoin="bevel"/>
<path d="M87 0L0 28L114 96L87 0Z" fill="#719C78" stroke="#719C78" stroke-linejoin="bevel"/>
<path d="M87 0H0V28L87 0Z" fill="#82BA7F" stroke="#82BA7F" stroke-linejoin="bevel"/>
</g>
<defs>
<clipPath id="clip0_39_24">
<path d="M0 0H520C531.046 0 540 8.95431 540 20V760C540 771.046 531.046 780 520 780H0V0Z" fill="white"/>
</clipPath>
</defs>
</svg>
