<svg width="540" height="780" viewBox="0 0 540 780" fill="none" xmlns="http://www.w3.org/2000/svg">
<g clip-path="url(#clip0_40_54)">
<path d="M253 411L322 505L307 397L253 411Z" fill="#82BA7F" stroke="#82BA7F" stroke-linejoin="bevel"/>
<path d="M322 505H324L307 397L322 505Z" fill="#719C78" stroke="#719C78" stroke-linejoin="bevel"/>
<path d="M253 411L201 449L322 505L253 411Z" fill="#7CB07D" stroke="#7CB07D" stroke-linejoin="bevel"/>
<path d="M194 434V437L201 449L194 434Z" fill="#6C9275" stroke="#6C9275" stroke-linejoin="bevel"/>
<path d="M253 411L194 434L201 449L253 411Z" fill="#6C9275" stroke="#6C9275" stroke-linejoin="bevel"/>
<path d="M146 525L221 533L201 449L146 525Z" fill="#86BF80" stroke="#86BF80" stroke-linejoin="bevel"/>
<path d="M201 449L221 533L322 505L201 449Z" fill="#7CB07D" stroke="#7CB07D" stroke-linejoin="bevel"/>
<path d="M322 505L314 559L324 505H322Z" fill="#719C78" stroke="#719C78" stroke-linejoin="bevel"/>
<path d="M256 555L314 559L322 505L256 555Z" fill="#79AB7C" stroke="#79AB7C" stroke-linejoin="bevel"/>
<path d="M221 533L256 555L322 505L221 533Z" fill="#79AB7C" stroke="#79AB7C" stroke-linejoin="bevel"/>
<path d="M256 555L298 569L314 559L256 555Z" fill="#86BF80" stroke="#86BF80" stroke-linejoin="bevel"/>
<path d="M454 492L410 426L324 505L454 492Z" fill="#719C78" stroke="#719C78" stroke-linejoin="bevel"/>
<path d="M324 505L410 426L307 397L324 505Z" fill="#79AB7C" stroke="#79AB7C" stroke-linejoin="bevel"/>
<path d="M410 426L393 382L307 397L410 426Z" fill="#73A17A" stroke="#73A17A" stroke-linejoin="bevel"/>
<path d="M188 646L285 587L256 555L188 646Z" fill="#79AB7C" stroke="#79AB7C" stroke-linejoin="bevel"/>
<path d="M256 555L285 587L298 569L256 555Z" fill="#7CB07D" stroke="#7CB07D" stroke-linejoin="bevel"/>
<path d="M298 569L350 614L314 559L298 569Z" fill="#7CB07D" stroke="#7CB07D" stroke-linejoin="bevel"/>
<path d="M425 385L373 329L393 382L425 385Z" fill="#79AB7C" stroke="#79AB7C" stroke-linejoin="bevel"/>
<path d="M393 382L373 329L307 397L393 382Z" fill="#6A8D73" stroke="#6A8D73" stroke-linejoin="bevel"/>
<path d="M307 397L205 305L253 411L307 397Z" fill="#73A17A" stroke="#73A17A" stroke-linejoin="bevel"/>
<path d="M157 380L149 403L194 434L157 380Z" fill="#79AB7C" stroke="#79AB7C" stroke-linejoin="bevel"/>
<path d="M350 614L398 559H314L350 614Z" fill="#6A8D73" stroke="#6A8D73" stroke-linejoin="bevel"/>
<path d="M314 559H398L324 505L314 559Z" fill="#86BF80" stroke="#86BF80" stroke-linejoin="bevel"/>
<path d="M410 426L425 385L393 382L410 426Z" fill="#82BA7F" stroke="#82BA7F" stroke-linejoin="bevel"/>
<path d="M474 483L425 385L410 426L474 483Z" fill="#86BF80" stroke="#86BF80" stroke-linejoin="bevel"/>
<path d="M194 434L143 416L194 437V434Z" fill="#79AB7C" stroke="#79AB7C" stroke-linejoin="bevel"/>
<path d="M194 437L146 525L201 449L194 437Z" fill="#82BA7F" stroke="#82BA7F" stroke-linejoin="bevel"/>
<path d="M157 380L194 434L253 411L157 380Z" fill="#6A8D73" stroke="#6A8D73" stroke-linejoin="bevel"/>
<path d="M149 403L143 416L194 434L149 403Z" fill="#6C9275" stroke="#6C9275" stroke-linejoin="bevel"/>
<path d="M170 341L157 380L253 411L170 341Z" fill="#73A17A" stroke="#73A17A" stroke-linejoin="bevel"/>
<path d="M149 403L107 402L143 416L149 403Z" fill="#79AB7C" stroke="#79AB7C" stroke-linejoin="bevel"/>
<path d="M373 329L342 300L307 397L373 329Z" fill="#6A8D73" stroke="#6A8D73" stroke-linejoin="bevel"/>
<path d="M143 416L146 525L194 437L143 416Z" fill="#6C9275" stroke="#6C9275" stroke-linejoin="bevel"/>
<path d="M221 533L168 604L256 555L221 533Z" fill="#73A17A" stroke="#73A17A" stroke-linejoin="bevel"/>
<path d="M398 559L454 492L324 505L398 559Z" fill="#73A17A" stroke="#73A17A" stroke-linejoin="bevel"/>
<path d="M205 305L170 341L253 411L205 305Z" fill="#73A17A" stroke="#73A17A" stroke-linejoin="bevel"/>
<path d="M157 380L107 402L149 403L157 380Z" fill="#86BF80" stroke="#86BF80" stroke-linejoin="bevel"/>
<path d="M285 587L350 614L298 569L285 587Z" fill="#7CB07D" stroke="#7CB07D" stroke-linejoin="bevel"/>
<path d="M289 266L205 305L307 397L289 266Z" fill="#6A8D73" stroke="#6A8D73" stroke-linejoin="bevel"/>
<path d="M285 587L349 619L350 614L285 587Z" fill="#7FB57E" stroke="#7FB57E" stroke-linejoin="bevel"/>
<path d="M350 614L411 600L398 559L350 614Z" fill="#6C9275" stroke="#6C9275" stroke-linejoin="bevel"/>
<path d="M469 534L474 483L454 492L469 534Z" fill="#7FB57E" stroke="#7FB57E" stroke-linejoin="bevel"/>
<path d="M266 707L349 619L285 587L266 707Z" fill="#6E9777" stroke="#6E9777" stroke-linejoin="bevel"/>
<path d="M469 534L454 492L398 559L469 534Z" fill="#79AB7C" stroke="#79AB7C" stroke-linejoin="bevel"/>
<path d="M454 492L474 483L410 426L454 492Z" fill="#719C78" stroke="#719C78" stroke-linejoin="bevel"/>
<path d="M410 607L411 600L350 614L410 607Z" fill="#719C78" stroke="#719C78" stroke-linejoin="bevel"/>
<path d="M342 300L289 266L307 397L342 300Z" fill="#719C78" stroke="#719C78" stroke-linejoin="bevel"/>
<path d="M373 329L376 284L342 300L373 329Z" fill="#79AB7C" stroke="#79AB7C" stroke-linejoin="bevel"/>
<path d="M342 300L320 221L289 266L342 300Z" fill="#82BA7F" stroke="#82BA7F" stroke-linejoin="bevel"/>
<path d="M466 284H376L373 329L466 284Z" fill="#86BF80" stroke="#86BF80" stroke-linejoin="bevel"/>
<path d="M466 284L373 329L425 385L466 284Z" fill="#79AB7C" stroke="#79AB7C" stroke-linejoin="bevel"/>
<path d="M289 266L236 272L205 305L289 266Z" fill="#79AB7C" stroke="#79AB7C" stroke-linejoin="bevel"/>
<path d="M83 264L107 402L170 341L83 264Z" fill="#719C78" stroke="#719C78" stroke-linejoin="bevel"/>
<path d="M349 619L410 607L350 614L349 619Z" fill="#719C78" stroke="#719C78" stroke-linejoin="bevel"/>
<path d="M411 600L469 534L398 559L411 600Z" fill="#6C9275" stroke="#6C9275" stroke-linejoin="bevel"/>
<path d="M170 341L107 402L157 380L170 341Z" fill="#7CB07D" stroke="#7CB07D" stroke-linejoin="bevel"/>
<path d="M143 416L79 431L146 525L143 416Z" fill="#82BA7F" stroke="#82BA7F" stroke-linejoin="bevel"/>
<path d="M203 268L170 341L205 305L203 268Z" fill="#86BF80" stroke="#86BF80" stroke-linejoin="bevel"/>
<path d="M520 548L469 534L517 555L520 548Z" fill="#86BF80" stroke="#86BF80" stroke-linejoin="bevel"/>
<path d="M84 608L168 604L146 525L84 608Z" fill="#7CB07D" stroke="#7CB07D" stroke-linejoin="bevel"/>
<path d="M146 525L168 604L221 533L146 525Z" fill="#73A17A" stroke="#73A17A" stroke-linejoin="bevel"/>
<path d="M211 205L219 269L236 272L211 205Z" fill="#86BF80" stroke="#86BF80" stroke-linejoin="bevel"/>
<path d="M236 272L219 269L205 305L236 272Z" fill="#6C9275" stroke="#6C9275" stroke-linejoin="bevel"/>
<path d="M157 233L203 268L211 205L157 233Z" fill="#7CB07D" stroke="#7CB07D" stroke-linejoin="bevel"/>
<path d="M219 269L203 268L205 305L219 269Z" fill="#6C9275" stroke="#6C9275" stroke-linejoin="bevel"/>
<path d="M528 435L480 364L425 385L528 435Z" fill="#6C9275" stroke="#6C9275" stroke-linejoin="bevel"/>
<path d="M8 352L79 431L107 402L8 352Z" fill="#6C9275" stroke="#6C9275" stroke-linejoin="bevel"/>
<path d="M107 402L79 431L143 416L107 402Z" fill="#6E9777" stroke="#6E9777" stroke-linejoin="bevel"/>
<path d="M170 679L188 646L135 685L170 679Z" fill="#73A17A" stroke="#73A17A" stroke-linejoin="bevel"/>
<path d="M168 604L188 646L256 555L168 604Z" fill="#79AB7C" stroke="#79AB7C" stroke-linejoin="bevel"/>
<path d="M79 431L75 530L146 525L79 431Z" fill="#719C78" stroke="#719C78" stroke-linejoin="bevel"/>
<path d="M409 213L320 221L376 284L409 213Z" fill="#86BF80" stroke="#86BF80" stroke-linejoin="bevel"/>
<path d="M376 284L320 221L342 300L376 284Z" fill="#7FB57E" stroke="#7FB57E" stroke-linejoin="bevel"/>
<path d="M289 266L211 205L236 272L289 266Z" fill="#76A67B" stroke="#76A67B" stroke-linejoin="bevel"/>
<path d="M474 483L528 435L425 385L474 483Z" fill="#73A17A" stroke="#73A17A" stroke-linejoin="bevel"/>
<path d="M540 470L528 435L474 483L540 470Z" fill="#719C78" stroke="#719C78" stroke-linejoin="bevel"/>
<path d="M540 394L496 331L480 364L540 394Z" fill="#82BA7F" stroke="#82BA7F" stroke-linejoin="bevel"/>
<path d="M480 364L466 284L425 385L480 364Z" fill="#6A8D73" stroke="#6A8D73" stroke-linejoin="bevel"/>
<path d="M79 431L65 529L75 530L79 431Z" fill="#82BA7F" stroke="#82BA7F" stroke-linejoin="bevel"/>
<path d="M135 685L188 646L168 604L135 685Z" fill="#76A67B" stroke="#76A67B" stroke-linejoin="bevel"/>
<path d="M496 331L466 284L480 364L496 331Z" fill="#719C78" stroke="#719C78" stroke-linejoin="bevel"/>
<path d="M517 555L469 534L411 600L517 555Z" fill="#6C9275" stroke="#6C9275" stroke-linejoin="bevel"/>
<path d="M469 534L520 548L474 483L469 534Z" fill="#6C9275" stroke="#6C9275" stroke-linejoin="bevel"/>
<path d="M410 607L517 555L411 600L410 607Z" fill="#6C9275" stroke="#6C9275" stroke-linejoin="bevel"/>
<path d="M520 548L540 470L474 483L520 548Z" fill="#76A67B" stroke="#76A67B" stroke-linejoin="bevel"/>
<path d="M528 435L540 402L480 364L528 435Z" fill="#6C9275" stroke="#6C9275" stroke-linejoin="bevel"/>
<path d="M540 470V402L528 435L540 470Z" fill="#6E9777" stroke="#6E9777" stroke-linejoin="bevel"/>
<path d="M540 402V394L480 364L540 402Z" fill="#73A17A" stroke="#73A17A" stroke-linejoin="bevel"/>
<path d="M496 331L540 324L466 284L496 331Z" fill="#7CB07D" stroke="#7CB07D" stroke-linejoin="bevel"/>
<path d="M188 646L266 707L285 587L188 646Z" fill="#7CB07D" stroke="#7CB07D" stroke-linejoin="bevel"/>
<path d="M349 619L403 702L410 607L349 619Z" fill="#82BA7F" stroke="#82BA7F" stroke-linejoin="bevel"/>
<path d="M410 607L540 577L517 555L410 607Z" fill="#7CB07D" stroke="#7CB07D" stroke-linejoin="bevel"/>
<path d="M84 608L146 525L75 530L84 608Z" fill="#6A8D73" stroke="#6A8D73" stroke-linejoin="bevel"/>
<path d="M188 646L244 711L266 707L188 646Z" fill="#6E9777" stroke="#6E9777" stroke-linejoin="bevel"/>
<path d="M0 522L57 560L65 529L0 522Z" fill="#82BA7F" stroke="#82BA7F" stroke-linejoin="bevel"/>
<path d="M65 529L57 560L75 530L65 529Z" fill="#73A17A" stroke="#73A17A" stroke-linejoin="bevel"/>
<path d="M211 205L203 268L219 269L211 205Z" fill="#79AB7C" stroke="#79AB7C" stroke-linejoin="bevel"/>
<path d="M203 268L157 233L170 341L203 268Z" fill="#86BF80" stroke="#86BF80" stroke-linejoin="bevel"/>
<path d="M57 560L84 608L75 530L57 560Z" fill="#79AB7C" stroke="#79AB7C" stroke-linejoin="bevel"/>
<path d="M0 650L89 617L84 608L0 650Z" fill="#7CB07D" stroke="#7CB07D" stroke-linejoin="bevel"/>
<path d="M84 608L89 617L168 604L84 608Z" fill="#6A8D73" stroke="#6A8D73" stroke-linejoin="bevel"/>
<path d="M170 679L244 711L188 646L170 679Z" fill="#6C9275" stroke="#6C9275" stroke-linejoin="bevel"/>
<path d="M320 221L211 205L289 266L320 221Z" fill="#7FB57E" stroke="#7FB57E" stroke-linejoin="bevel"/>
<path d="M520 548L540 543V470L520 548Z" fill="#7FB57E" stroke="#7FB57E" stroke-linejoin="bevel"/>
<path d="M517 555L540 543L520 548L517 555Z" fill="#7CB07D" stroke="#7CB07D" stroke-linejoin="bevel"/>
<path d="M540 577V543L517 555L540 577Z" fill="#7FB57E" stroke="#7FB57E" stroke-linejoin="bevel"/>
<path d="M292 780L311 716L266 707L292 780Z" fill="#73A17A" stroke="#73A17A" stroke-linejoin="bevel"/>
<path d="M266 707L311 716L349 619L266 707Z" fill="#7FB57E" stroke="#7FB57E" stroke-linejoin="bevel"/>
<path d="M466 284L409 213L376 284H466Z" fill="#82BA7F" stroke="#82BA7F" stroke-linejoin="bevel"/>
<path d="M271 140L208 196L211 205L271 140Z" fill="#82BA7F" stroke="#82BA7F" stroke-linejoin="bevel"/>
<path d="M311 716L403 702L349 619L311 716Z" fill="#86BF80" stroke="#86BF80" stroke-linejoin="bevel"/>
<path d="M271 140L211 205L320 221L271 140Z" fill="#6A8D73" stroke="#6A8D73" stroke-linejoin="bevel"/>
<path d="M211 205L208 196L157 233L211 205Z" fill="#7FB57E" stroke="#7FB57E" stroke-linejoin="bevel"/>
<path d="M456 706L540 577L410 607L456 706Z" fill="#76A67B" stroke="#76A67B" stroke-linejoin="bevel"/>
<path d="M403 702L426 696L410 607L403 702Z" fill="#76A67B" stroke="#76A67B" stroke-linejoin="bevel"/>
<path d="M540 394V324L496 331L540 394Z" fill="#7FB57E" stroke="#7FB57E" stroke-linejoin="bevel"/>
<path d="M466 284L465 185L409 213L466 284Z" fill="#82BA7F" stroke="#82BA7F" stroke-linejoin="bevel"/>
<path d="M371 746L412 707L403 702L371 746Z" fill="#6C9275" stroke="#6C9275" stroke-linejoin="bevel"/>
<path d="M403 702L412 707L426 696L403 702Z" fill="#7CB07D" stroke="#7CB07D" stroke-linejoin="bevel"/>
<path d="M89 617L135 685L168 604L89 617Z" fill="#73A17A" stroke="#73A17A" stroke-linejoin="bevel"/>
<path d="M170 679L152 758L244 711L170 679Z" fill="#6E9777" stroke="#6E9777" stroke-linejoin="bevel"/>
<path d="M152 117L123 231L157 233L152 117Z" fill="#82BA7F" stroke="#82BA7F" stroke-linejoin="bevel"/>
<path d="M157 233L83 264L170 341L157 233Z" fill="#73A17A" stroke="#73A17A" stroke-linejoin="bevel"/>
<path d="M123 231L83 264L157 233L123 231Z" fill="#719C78" stroke="#719C78" stroke-linejoin="bevel"/>
<path d="M79 431L0 457L65 529L79 431Z" fill="#7CB07D" stroke="#7CB07D" stroke-linejoin="bevel"/>
<path d="M465 185L396 187L409 213L465 185Z" fill="#6A8D73" stroke="#6A8D73" stroke-linejoin="bevel"/>
<path d="M409 213L396 187L320 221L409 213Z" fill="#79AB7C" stroke="#79AB7C" stroke-linejoin="bevel"/>
<path d="M69 143L94 239L123 231L69 143Z" fill="#7CB07D" stroke="#7CB07D" stroke-linejoin="bevel"/>
<path d="M123 231L94 239L83 264L123 231Z" fill="#86BF80" stroke="#86BF80" stroke-linejoin="bevel"/>
<path d="M8 352L0 457L79 431L8 352Z" fill="#73A17A" stroke="#73A17A" stroke-linejoin="bevel"/>
<path d="M412 707L456 706L426 696L412 707Z" fill="#719C78" stroke="#719C78" stroke-linejoin="bevel"/>
<path d="M426 696L456 706L410 607L426 696Z" fill="#6A8D73" stroke="#6A8D73" stroke-linejoin="bevel"/>
<path d="M440 780L456 706L412 707L440 780Z" fill="#719C78" stroke="#719C78" stroke-linejoin="bevel"/>
<path d="M0 457V522L65 529L0 457Z" fill="#6C9275" stroke="#6C9275" stroke-linejoin="bevel"/>
<path d="M57 560L0 606L84 608L57 560Z" fill="#6E9777" stroke="#6E9777" stroke-linejoin="bevel"/>
<path d="M89 617L95 717L135 685L89 617Z" fill="#719C78" stroke="#719C78" stroke-linejoin="bevel"/>
<path d="M345 780L371 746L311 716L345 780Z" fill="#79AB7C" stroke="#79AB7C" stroke-linejoin="bevel"/>
<path d="M311 716L371 746L403 702L311 716Z" fill="#73A17A" stroke="#73A17A" stroke-linejoin="bevel"/>
<path d="M292 780L266 707L244 711L292 780Z" fill="#6C9275" stroke="#6C9275" stroke-linejoin="bevel"/>
<path d="M0 347L8 352L0 327V347Z" fill="#6E9777" stroke="#6E9777" stroke-linejoin="bevel"/>
<path d="M83 264L8 352L107 402L83 264Z" fill="#79AB7C" stroke="#79AB7C" stroke-linejoin="bevel"/>
<path d="M0 522V556L57 560L0 522Z" fill="#73A17A" stroke="#73A17A" stroke-linejoin="bevel"/>
<path d="M0 327L8 352L83 264L0 327Z" fill="#719C78" stroke="#719C78" stroke-linejoin="bevel"/>
<path d="M8 352L0 347V457L8 352Z" fill="#6A8D73" stroke="#6A8D73" stroke-linejoin="bevel"/>
<path d="M396 187L271 140L320 221L396 187Z" fill="#6A8D73" stroke="#6A8D73" stroke-linejoin="bevel"/>
<path d="M208 196L152 117L157 233L208 196Z" fill="#7CB07D" stroke="#7CB07D" stroke-linejoin="bevel"/>
<path d="M271 140L231 142L208 196L271 140Z" fill="#76A67B" stroke="#76A67B" stroke-linejoin="bevel"/>
<path d="M0 207V327L83 264L0 207Z" fill="#79AB7C" stroke="#79AB7C" stroke-linejoin="bevel"/>
<path d="M518 207L465 185L466 284L518 207Z" fill="#6C9275" stroke="#6C9275" stroke-linejoin="bevel"/>
<path d="M396 187L314 80L271 140L396 187Z" fill="#86BF80" stroke="#86BF80" stroke-linejoin="bevel"/>
<path d="M151 780H292L244 711L151 780Z" fill="#82BA7F" stroke="#82BA7F" stroke-linejoin="bevel"/>
<path d="M314 80L245 131L271 140L314 80Z" fill="#6C9275" stroke="#6C9275" stroke-linejoin="bevel"/>
<path d="M271 140L245 131L231 142L271 140Z" fill="#82BA7F" stroke="#82BA7F" stroke-linejoin="bevel"/>
<path d="M231 142L201 116L208 196L231 142Z" fill="#7FB57E" stroke="#7FB57E" stroke-linejoin="bevel"/>
<path d="M292 780H313L311 716L292 780Z" fill="#719C78" stroke="#719C78" stroke-linejoin="bevel"/>
<path d="M371 746L428 780L412 707L371 746Z" fill="#6A8D73" stroke="#6A8D73" stroke-linejoin="bevel"/>
<path d="M540 324V240L466 284L540 324Z" fill="#6C9275" stroke="#6C9275" stroke-linejoin="bevel"/>
<path d="M0 686L95 717L89 617L0 686Z" fill="#6E9777" stroke="#6E9777" stroke-linejoin="bevel"/>
<path d="M135 685L152 758L170 679L135 685Z" fill="#7FB57E" stroke="#7FB57E" stroke-linejoin="bevel"/>
<path d="M0 556V606L57 560L0 556Z" fill="#7CB07D" stroke="#7CB07D" stroke-linejoin="bevel"/>
<path d="M313 780H345L311 716L313 780Z" fill="#6C9275" stroke="#6C9275" stroke-linejoin="bevel"/>
<path d="M540 240L518 207L466 284L540 240Z" fill="#79AB7C" stroke="#79AB7C" stroke-linejoin="bevel"/>
<path d="M95 717L152 758L135 685L95 717Z" fill="#73A17A" stroke="#73A17A" stroke-linejoin="bevel"/>
<path d="M540 771V694L456 706L540 771Z" fill="#73A17A" stroke="#73A17A" stroke-linejoin="bevel"/>
<path d="M456 706L540 694V577L456 706Z" fill="#7CB07D" stroke="#7CB07D" stroke-linejoin="bevel"/>
<path d="M280 38L201 116L245 131L280 38Z" fill="#79AB7C" stroke="#79AB7C" stroke-linejoin="bevel"/>
<path d="M245 131L201 116L231 142L245 131Z" fill="#6A8D73" stroke="#6A8D73" stroke-linejoin="bevel"/>
<path d="M94 239L0 207L83 264L94 239Z" fill="#6A8D73" stroke="#6A8D73" stroke-linejoin="bevel"/>
<path d="M0 606V650L84 608L0 606Z" fill="#6C9275" stroke="#6C9275" stroke-linejoin="bevel"/>
<path d="M105 780H151L152 758L105 780Z" fill="#6E9777" stroke="#6E9777" stroke-linejoin="bevel"/>
<path d="M345 780H428L371 746L345 780Z" fill="#7FB57E" stroke="#7FB57E" stroke-linejoin="bevel"/>
<path d="M96 767L152 758L95 717L96 767Z" fill="#6C9275" stroke="#6C9275" stroke-linejoin="bevel"/>
<path d="M152 758L151 780L244 711L152 758Z" fill="#82BA7F" stroke="#82BA7F" stroke-linejoin="bevel"/>
<path d="M428 780H440L412 707L428 780Z" fill="#6A8D73" stroke="#6A8D73" stroke-linejoin="bevel"/>
<path d="M518 207L540 193L465 185L518 207Z" fill="#86BF80" stroke="#86BF80" stroke-linejoin="bevel"/>
<path d="M465 185L468 132L396 187L465 185Z" fill="#76A67B" stroke="#76A67B" stroke-linejoin="bevel"/>
<path d="M540 240V193L518 207L540 240Z" fill="#82BA7F" stroke="#82BA7F" stroke-linejoin="bevel"/>
<path d="M201 116L152 117L208 196L201 116Z" fill="#6E9777" stroke="#6E9777" stroke-linejoin="bevel"/>
<path d="M540 193L468 132L465 185L540 193Z" fill="#73A17A" stroke="#73A17A" stroke-linejoin="bevel"/>
<path d="M67 780L96 767L95 717L67 780Z" fill="#6E9777" stroke="#6E9777" stroke-linejoin="bevel"/>
<path d="M0 650V686L89 617L0 650Z" fill="#86BF80" stroke="#86BF80" stroke-linejoin="bevel"/>
<path d="M414 73L314 80L396 187L414 73Z" fill="#82BA7F" stroke="#82BA7F" stroke-linejoin="bevel"/>
<path d="M151 63L114 96L152 117L151 63Z" fill="#79AB7C" stroke="#79AB7C" stroke-linejoin="bevel"/>
<path d="M67 780H105L96 767L67 780Z" fill="#82BA7F" stroke="#82BA7F" stroke-linejoin="bevel"/>
<path d="M96 767L105 780L152 758L96 767Z" fill="#82BA7F" stroke="#82BA7F" stroke-linejoin="bevel"/>
<path d="M114 96L98 126L152 117L114 96Z" fill="#73A17A" stroke="#73A17A" stroke-linejoin="bevel"/>
<path d="M152 117L98 126L123 231L152 117Z" fill="#6A8D73" stroke="#6A8D73" stroke-linejoin="bevel"/>
<path d="M0 189V207L94 239L0 189Z" fill="#76A67B" stroke="#76A67B" stroke-linejoin="bevel"/>
<path d="M98 126L69 143L123 231L98 126Z" fill="#82BA7F" stroke="#82BA7F" stroke-linejoin="bevel"/>
<path d="M69 143L0 189L94 239L69 143Z" fill="#79AB7C" stroke="#79AB7C" stroke-linejoin="bevel"/>
<path d="M468 132L432 84L396 187L468 132Z" fill="#73A17A" stroke="#73A17A" stroke-linejoin="bevel"/>
<path d="M433 75L432 84L482 62L433 75Z" fill="#719C78" stroke="#719C78" stroke-linejoin="bevel"/>
<path d="M0 686L67 780L95 717L0 686Z" fill="#6C9275" stroke="#6C9275" stroke-linejoin="bevel"/>
<path d="M432 84L414 73L396 187L432 84Z" fill="#7CB07D" stroke="#7CB07D" stroke-linejoin="bevel"/>
<path d="M151 63L152 117L201 116L151 63Z" fill="#6A8D73" stroke="#6A8D73" stroke-linejoin="bevel"/>
<path d="M98 126L114 96L69 143L98 126Z" fill="#7CB07D" stroke="#7CB07D" stroke-linejoin="bevel"/>
<path d="M69 143L6 126L0 189L69 143Z" fill="#6E9777" stroke="#6E9777" stroke-linejoin="bevel"/>
<path d="M440 780L540 771L456 706L440 780Z" fill="#79AB7C" stroke="#79AB7C" stroke-linejoin="bevel"/>
<path d="M482 62L432 84L468 132L482 62Z" fill="#82BA7F" stroke="#82BA7F" stroke-linejoin="bevel"/>
<path d="M432 84L433 75L414 73L432 84Z" fill="#82BA7F" stroke="#82BA7F" stroke-linejoin="bevel"/>
<path d="M440 780H540V771L440 780Z" fill="#719C78" stroke="#719C78" stroke-linejoin="bevel"/>
<path d="M540 193V122L468 132L540 193Z" fill="#7CB07D" stroke="#7CB07D" stroke-linejoin="bevel"/>
<path d="M255 20L151 63L201 116L255 20Z" fill="#7FB57E" stroke="#7FB57E" stroke-linejoin="bevel"/>
<path d="M114 96L6 126L69 143L114 96Z" fill="#79AB7C" stroke="#79AB7C" stroke-linejoin="bevel"/>
<path d="M280 38L245 131L314 80L280 38Z" fill="#6C9275" stroke="#6C9275" stroke-linejoin="bevel"/>
<path d="M325 0L280 38L314 80L325 0Z" fill="#79AB7C" stroke="#79AB7C" stroke-linejoin="bevel"/>
<path d="M255 20L280 38L261 0L255 20Z" fill="#76A67B" stroke="#76A67B" stroke-linejoin="bevel"/>
<path d="M540 122L482 62L468 132L540 122Z" fill="#6E9777" stroke="#6E9777" stroke-linejoin="bevel"/>
<path d="M400 0L369 14L414 73L400 0Z" fill="#76A67B" stroke="#76A67B" stroke-linejoin="bevel"/>
<path d="M369 14L314 80L414 73L369 14Z" fill="#6C9275" stroke="#6C9275" stroke-linejoin="bevel"/>
<path d="M280 38L255 20L201 116L280 38Z" fill="#76A67B" stroke="#76A67B" stroke-linejoin="bevel"/>
<path d="M0 125L6 126L0 28V125Z" fill="#76A67B" stroke="#76A67B" stroke-linejoin="bevel"/>
<path d="M0 686V780H67L0 686Z" fill="#6A8D73" stroke="#6A8D73" stroke-linejoin="bevel"/>
<path d="M0 28L6 126L114 96L0 28Z" fill="#86BF80" stroke="#86BF80" stroke-linejoin="bevel"/>
<path d="M6 126L0 125V189L6 126Z" fill="#6A8D73" stroke="#6A8D73" stroke-linejoin="bevel"/>
<path d="M87 0L114 96L151 63L87 0Z" fill="#76A67B" stroke="#76A67B" stroke-linejoin="bevel"/>
<path d="M400 0L414 73L433 75L400 0Z" fill="#6E9777" stroke="#6E9777" stroke-linejoin="bevel"/>
<path d="M325 0H261L280 38L325 0Z" fill="#86BF80" stroke="#86BF80" stroke-linejoin="bevel"/>
<path d="M255 20L173 10L151 63L255 20Z" fill="#719C78" stroke="#719C78" stroke-linejoin="bevel"/>
<path d="M369 14L325 0L314 80L369 14Z" fill="#6C9275" stroke="#6C9275" stroke-linejoin="bevel"/>
<path d="M186 0L173 10L255 20L186 0Z" fill="#719C78" stroke="#719C78" stroke-linejoin="bevel"/>
<path d="M261 0H186L255 20L261 0Z" fill="#76A67B" stroke="#76A67B" stroke-linejoin="bevel"/>
<path d="M173 10L129 0L151 63L173 10Z" fill="#7FB57E" stroke="#7FB57E" stroke-linejoin="bevel"/>
<path d="M471 0H400L433 75L471 0Z" fill="#7FB57E" stroke="#7FB57E" stroke-linejoin="bevel"/>
<path d="M369 14L400 0H325L369 14Z" fill="#6C9275" stroke="#6C9275" stroke-linejoin="bevel"/>
<path d="M186 0H129L173 10L186 0Z" fill="#7FB57E" stroke="#7FB57E" stroke-linejoin="bevel"/>
<path d="M540 28L471 0L482 62L540 28Z" fill="#82BA7F" stroke="#82BA7F" stroke-linejoin="bevel"/>
<path d="M482 62L471 0L433 75L482 62Z" fill="#7FB57E" stroke="#7FB57E" stroke-linejoin="bevel"/>
<path d="M540 122V28L482 62L540 122Z" fill="#719C78" stroke="#719C78" stroke-linejoin="bevel"/>
<path d="M129 0H87L151 63L129 0Z" fill="#82BA7F" stroke="#82BA7F" stroke-linejoin="bevel"/>
<path d="M540 28V0H471L540 28Z" fill="#7CB07D" stroke="#7CB07D" stroke-linejoin="bevel"/>
<path d="M87 0L0 28L114 96L87 0Z" fill="#719C78" stroke="#719C78" stroke-linejoin="bevel"/>
<path d="M87 0H0V28L87 0Z" fill="#82BA7F" stroke="#82BA7F" stroke-linejoin="bevel"/>
</g>
<path d="M189.5 400C189.5 391.992 195.992 385.5 204 385.5H334C342.008 385.5 348.5 391.992 348.5 400V410C348.5 418.008 342.008 424.5 334 424.5H204C195.992 424.5 189.5 418.008 189.5 410V400Z" stroke="white"/>
<path d="M249.943 402.182C249.866 401.534 249.555 401.031 249.009 400.673C248.464 400.315 247.795 400.136 247.002 400.136C246.423 400.136 245.916 400.23 245.481 400.418C245.051 400.605 244.714 400.863 244.471 401.191C244.232 401.519 244.113 401.892 244.113 402.31C244.113 402.659 244.196 402.96 244.362 403.211C244.533 403.458 244.75 403.665 245.014 403.831C245.278 403.993 245.555 404.127 245.845 404.234C246.135 404.336 246.401 404.419 246.644 404.483L247.974 404.841C248.315 404.93 248.694 405.054 249.112 405.212C249.533 405.369 249.936 405.585 250.32 405.857C250.707 406.126 251.027 406.471 251.278 406.893C251.53 407.315 251.656 407.832 251.656 408.446C251.656 409.153 251.47 409.793 251.1 410.364C250.733 410.935 250.196 411.388 249.489 411.725C248.786 412.062 247.931 412.23 246.926 412.23C245.988 412.23 245.176 412.079 244.49 411.776C243.808 411.474 243.271 411.052 242.879 410.511C242.492 409.969 242.272 409.341 242.221 408.625H243.857C243.9 409.119 244.066 409.528 244.356 409.852C244.65 410.172 245.021 410.411 245.468 410.568C245.92 410.722 246.406 410.798 246.926 410.798C247.531 410.798 248.074 410.7 248.555 410.504C249.037 410.304 249.418 410.027 249.7 409.673C249.981 409.315 250.122 408.898 250.122 408.42C250.122 407.986 250 407.632 249.757 407.359C249.514 407.087 249.195 406.865 248.798 406.695C248.402 406.524 247.974 406.375 247.514 406.247L245.903 405.787C244.88 405.493 244.07 405.073 243.474 404.528C242.877 403.982 242.579 403.268 242.579 402.386C242.579 401.653 242.777 401.014 243.173 400.469C243.574 399.919 244.111 399.493 244.784 399.19C245.462 398.884 246.218 398.73 247.053 398.73C247.897 398.73 248.647 398.881 249.303 399.184C249.96 399.482 250.479 399.891 250.863 400.411C251.251 400.931 251.455 401.521 251.477 402.182H249.943ZM254.057 412V402.182H255.566V412H254.057ZM254.824 400.545C254.53 400.545 254.277 400.445 254.064 400.245C253.855 400.045 253.751 399.804 253.751 399.523C253.751 399.241 253.855 399.001 254.064 398.8C254.277 398.6 254.53 398.5 254.824 398.5C255.119 398.5 255.37 398.6 255.579 398.8C255.792 399.001 255.898 399.241 255.898 399.523C255.898 399.804 255.792 400.045 255.579 400.245C255.37 400.445 255.119 400.545 254.824 400.545ZM262.292 415.886C261.563 415.886 260.937 415.793 260.413 415.605C259.889 415.422 259.452 415.179 259.102 414.876C258.757 414.578 258.482 414.259 258.278 413.918L259.479 413.074C259.616 413.253 259.788 413.457 259.997 413.688C260.206 413.922 260.492 414.124 260.854 414.295C261.22 414.469 261.7 414.557 262.292 414.557C263.085 414.557 263.739 414.365 264.254 413.982C264.77 413.598 265.028 412.997 265.028 412.179V410.185H264.9C264.789 410.364 264.631 410.585 264.427 410.849C264.227 411.109 263.937 411.342 263.558 411.546C263.183 411.746 262.676 411.847 262.036 411.847C261.244 411.847 260.532 411.659 259.901 411.284C259.275 410.909 258.778 410.364 258.412 409.648C258.05 408.932 257.869 408.062 257.869 407.04C257.869 406.034 258.046 405.158 258.399 404.413C258.753 403.663 259.245 403.083 259.876 402.674C260.506 402.261 261.235 402.054 262.062 402.054C262.701 402.054 263.208 402.161 263.583 402.374C263.962 402.582 264.252 402.821 264.453 403.089C264.657 403.354 264.815 403.571 264.926 403.741H265.079V402.182H266.536V412.281C266.536 413.125 266.345 413.811 265.961 414.339C265.582 414.872 265.07 415.262 264.427 415.509C263.788 415.761 263.076 415.886 262.292 415.886ZM262.241 410.491C262.846 410.491 263.357 410.353 263.775 410.076C264.193 409.799 264.51 409.401 264.727 408.881C264.945 408.361 265.053 407.739 265.053 407.014C265.053 406.307 264.947 405.683 264.734 405.141C264.521 404.6 264.205 404.176 263.788 403.869C263.37 403.562 262.854 403.409 262.241 403.409C261.602 403.409 261.069 403.571 260.643 403.895C260.221 404.219 259.903 404.653 259.69 405.199C259.482 405.744 259.377 406.349 259.377 407.014C259.377 407.696 259.484 408.299 259.697 408.823C259.914 409.343 260.234 409.752 260.656 410.05C261.082 410.344 261.61 410.491 262.241 410.491ZM270.806 406.094V412H269.298V402.182H270.755V403.716H270.883C271.113 403.217 271.462 402.817 271.931 402.514C272.4 402.207 273.005 402.054 273.747 402.054C274.411 402.054 274.993 402.19 275.492 402.463C275.99 402.732 276.378 403.141 276.655 403.69C276.932 404.236 277.07 404.926 277.07 405.761V412H275.562V405.864C275.562 405.092 275.362 404.491 274.961 404.061C274.56 403.626 274.011 403.409 273.312 403.409C272.83 403.409 272.4 403.513 272.021 403.722C271.646 403.931 271.35 404.236 271.132 404.636C270.915 405.037 270.806 405.523 270.806 406.094ZM286.679 398.909V412H285.094V398.909H286.679ZM291.162 406.094V412H289.653V402.182H291.111V403.716H291.238C291.468 403.217 291.818 402.817 292.287 402.514C292.755 402.207 293.361 402.054 294.102 402.054C294.767 402.054 295.348 402.19 295.847 402.463C296.346 402.732 296.733 403.141 297.01 403.69C297.287 404.236 297.426 404.926 297.426 405.761V412H295.917V405.864C295.917 405.092 295.717 404.491 295.316 404.061C294.916 403.626 294.366 403.409 293.667 403.409C293.186 403.409 292.755 403.513 292.376 403.722C292.001 403.931 291.705 404.236 291.488 404.636C291.27 405.037 291.162 405.523 291.162 406.094Z" fill="white"/>
<path d="M162.199 264.728L155.611 290H148.159L144.127 273.368L139.951 290H132.499L126.091 264.728H132.679L136.315 283.124L140.815 264.728H147.583L151.903 283.124L155.575 264.728H162.199ZM184.223 279.632C184.223 280.208 184.187 280.808 184.115 281.432H170.183C170.279 282.68 170.675 283.64 171.371 284.312C172.091 284.96 172.967 285.284 173.999 285.284C175.535 285.284 176.603 284.636 177.203 283.34H183.755C183.419 284.66 182.807 285.848 181.919 286.904C181.055 287.96 179.963 288.788 178.643 289.388C177.323 289.988 175.847 290.288 174.215 290.288C172.247 290.288 170.495 289.868 168.959 289.028C167.423 288.188 166.223 286.988 165.359 285.428C164.495 283.868 164.063 282.044 164.063 279.956C164.063 277.868 164.483 276.044 165.323 274.484C166.187 272.924 167.387 271.724 168.923 270.884C170.459 270.044 172.223 269.624 174.215 269.624C176.159 269.624 177.887 270.032 179.399 270.848C180.911 271.664 182.087 272.828 182.927 274.34C183.791 275.852 184.223 277.616 184.223 279.632ZM177.923 278.012C177.923 276.956 177.563 276.116 176.843 275.492C176.123 274.868 175.223 274.556 174.143 274.556C173.111 274.556 172.235 274.856 171.515 275.456C170.819 276.056 170.387 276.908 170.219 278.012H177.923ZM193.626 263.36V290H187.47V263.36H193.626ZM196.863 279.956C196.863 277.868 197.283 276.044 198.123 274.484C198.987 272.924 200.175 271.724 201.687 270.884C203.223 270.044 204.975 269.624 206.943 269.624C209.463 269.624 211.563 270.284 213.243 271.604C214.947 272.924 216.063 274.784 216.591 277.184H210.039C209.487 275.648 208.419 274.88 206.835 274.88C205.707 274.88 204.807 275.324 204.135 276.212C203.463 277.076 203.127 278.324 203.127 279.956C203.127 281.588 203.463 282.848 204.135 283.736C204.807 284.6 205.707 285.032 206.835 285.032C208.419 285.032 209.487 284.264 210.039 282.728H216.591C216.063 285.08 214.947 286.928 213.243 288.272C211.539 289.616 209.439 290.288 206.943 290.288C204.975 290.288 203.223 289.868 201.687 289.028C200.175 288.188 198.987 286.988 198.123 285.428C197.283 283.868 196.863 282.044 196.863 279.956ZM229.028 290.288C227.06 290.288 225.284 289.868 223.7 289.028C222.14 288.188 220.904 286.988 219.992 285.428C219.104 283.868 218.66 282.044 218.66 279.956C218.66 277.892 219.116 276.08 220.028 274.52C220.94 272.936 222.188 271.724 223.772 270.884C225.356 270.044 227.132 269.624 229.1 269.624C231.068 269.624 232.844 270.044 234.428 270.884C236.012 271.724 237.26 272.936 238.172 274.52C239.084 276.08 239.54 277.892 239.54 279.956C239.54 282.02 239.072 283.844 238.136 285.428C237.224 286.988 235.964 288.188 234.356 289.028C232.772 289.868 230.996 290.288 229.028 290.288ZM229.028 284.96C230.204 284.96 231.2 284.528 232.016 283.664C232.856 282.8 233.276 281.564 233.276 279.956C233.276 278.348 232.868 277.112 232.052 276.248C231.26 275.384 230.276 274.952 229.1 274.952C227.9 274.952 226.904 275.384 226.112 276.248C225.32 277.088 224.924 278.324 224.924 279.956C224.924 281.564 225.308 282.8 226.076 283.664C226.868 284.528 227.852 284.96 229.028 284.96ZM268.438 269.696C270.934 269.696 272.914 270.452 274.378 271.964C275.866 273.476 276.61 275.576 276.61 278.264V290H270.49V279.092C270.49 277.796 270.142 276.8 269.446 276.104C268.774 275.384 267.838 275.024 266.638 275.024C265.438 275.024 264.49 275.384 263.794 276.104C263.122 276.8 262.786 277.796 262.786 279.092V290H256.666V279.092C256.666 277.796 256.318 276.8 255.622 276.104C254.95 275.384 254.014 275.024 252.814 275.024C251.614 275.024 250.666 275.384 249.97 276.104C249.298 276.8 248.962 277.796 248.962 279.092V290H242.806V269.912H248.962V272.432C249.586 271.592 250.402 270.932 251.41 270.452C252.418 269.948 253.558 269.696 254.83 269.696C256.342 269.696 257.686 270.02 258.862 270.668C260.062 271.316 260.998 272.24 261.67 273.44C262.366 272.336 263.314 271.436 264.514 270.74C265.714 270.044 267.022 269.696 268.438 269.696ZM299.852 279.632C299.852 280.208 299.816 280.808 299.744 281.432H285.812C285.908 282.68 286.304 283.64 287 284.312C287.72 284.96 288.596 285.284 289.628 285.284C291.164 285.284 292.232 284.636 292.832 283.34H299.384C299.048 284.66 298.436 285.848 297.548 286.904C296.684 287.96 295.592 288.788 294.272 289.388C292.952 289.988 291.476 290.288 289.844 290.288C287.876 290.288 286.124 289.868 284.588 289.028C283.052 288.188 281.852 286.988 280.988 285.428C280.124 283.868 279.692 282.044 279.692 279.956C279.692 277.868 280.112 276.044 280.952 274.484C281.816 272.924 283.016 271.724 284.552 270.884C286.088 270.044 287.852 269.624 289.844 269.624C291.788 269.624 293.516 270.032 295.028 270.848C296.54 271.664 297.716 272.828 298.556 274.34C299.42 275.852 299.852 277.616 299.852 279.632ZM293.552 278.012C293.552 276.956 293.192 276.116 292.472 275.492C291.752 274.868 290.852 274.556 289.772 274.556C288.74 274.556 287.864 274.856 287.144 275.456C286.448 276.056 286.016 276.908 285.848 278.012H293.552ZM326.028 277.04C327.492 277.352 328.668 278.084 329.556 279.236C330.444 280.364 330.888 281.66 330.888 283.124C330.888 285.236 330.144 286.916 328.656 288.164C327.192 289.388 325.14 290 322.5 290H310.728V264.728H322.104C324.672 264.728 326.676 265.316 328.116 266.492C329.58 267.668 330.312 269.264 330.312 271.28C330.312 272.768 329.916 274.004 329.124 274.988C328.356 275.972 327.324 276.656 326.028 277.04ZM316.884 274.952H320.916C321.924 274.952 322.692 274.736 323.22 274.304C323.772 273.848 324.048 273.188 324.048 272.324C324.048 271.46 323.772 270.8 323.22 270.344C322.692 269.888 321.924 269.66 320.916 269.66H316.884V274.952ZM321.42 285.032C322.452 285.032 323.244 284.804 323.796 284.348C324.372 283.868 324.66 283.184 324.66 282.296C324.66 281.408 324.36 280.712 323.76 280.208C323.184 279.704 322.38 279.452 321.348 279.452H316.884V285.032H321.42ZM333.235 279.92C333.235 277.856 333.619 276.044 334.387 274.484C335.179 272.924 336.247 271.724 337.591 270.884C338.935 270.044 340.435 269.624 342.091 269.624C343.507 269.624 344.743 269.912 345.799 270.488C346.879 271.064 347.707 271.82 348.283 272.756V269.912H354.439V290H348.283V287.156C347.683 288.092 346.843 288.848 345.763 289.424C344.707 290 343.471 290.288 342.055 290.288C340.423 290.288 338.935 289.868 337.591 289.028C336.247 288.164 335.179 286.952 334.387 285.392C333.619 283.808 333.235 281.984 333.235 279.92ZM348.283 279.956C348.283 278.42 347.851 277.208 346.987 276.32C346.147 275.432 345.115 274.988 343.891 274.988C342.667 274.988 341.623 275.432 340.759 276.32C339.919 277.184 339.499 278.384 339.499 279.92C339.499 281.456 339.919 282.68 340.759 283.592C341.623 284.48 342.667 284.924 343.891 284.924C345.115 284.924 346.147 284.48 346.987 283.592C347.851 282.704 348.283 281.492 348.283 279.956ZM357.668 279.956C357.668 277.868 358.088 276.044 358.928 274.484C359.792 272.924 360.98 271.724 362.492 270.884C364.028 270.044 365.78 269.624 367.748 269.624C370.268 269.624 372.368 270.284 374.048 271.604C375.752 272.924 376.868 274.784 377.396 277.184H370.844C370.292 275.648 369.224 274.88 367.64 274.88C366.512 274.88 365.612 275.324 364.94 276.212C364.268 277.076 363.932 278.324 363.932 279.956C363.932 281.588 364.268 282.848 364.94 283.736C365.612 284.6 366.512 285.032 367.64 285.032C369.224 285.032 370.292 284.264 370.844 282.728H377.396C376.868 285.08 375.752 286.928 374.048 288.272C372.344 289.616 370.244 290.288 367.748 290.288C365.78 290.288 364.028 289.868 362.492 289.028C360.98 288.188 359.792 286.988 358.928 285.428C358.088 283.868 357.668 282.044 357.668 279.956ZM392.965 290L386.845 281.576V290H380.689V263.36H386.845V278.084L392.929 269.912H400.525L392.173 279.992L400.597 290H392.965ZM411.043 263.828L410.323 281.072H405.103L404.383 263.828H411.043ZM407.803 290.288C406.723 290.288 405.835 289.976 405.139 289.352C404.467 288.704 404.131 287.912 404.131 286.976C404.131 286.016 404.467 285.212 405.139 284.564C405.835 283.916 406.723 283.592 407.803 283.592C408.859 283.592 409.723 283.916 410.395 284.564C411.091 285.212 411.439 286.016 411.439 286.976C411.439 287.912 411.091 288.704 410.395 289.352C409.723 289.976 408.859 290.288 407.803 290.288Z" fill="white"/>
<path d="M127.641 339.224H133.497V341H125.457V324.272H127.641V339.224ZM141.553 341.216C140.321 341.216 139.201 340.936 138.193 340.376C137.201 339.816 136.417 339.024 135.841 338C135.281 336.96 135.001 335.76 135.001 334.4C135.001 333.056 135.289 331.872 135.865 330.848C136.457 329.808 137.257 329.016 138.265 328.472C139.273 327.912 140.401 327.632 141.649 327.632C142.897 327.632 144.025 327.912 145.033 328.472C146.041 329.016 146.833 329.8 147.409 330.824C148.001 331.848 148.297 333.04 148.297 334.4C148.297 335.76 147.993 336.96 147.385 338C146.793 339.024 145.985 339.816 144.961 340.376C143.937 340.936 142.801 341.216 141.553 341.216ZM141.553 339.296C142.337 339.296 143.073 339.112 143.761 338.744C144.449 338.376 145.001 337.824 145.417 337.088C145.849 336.352 146.065 335.456 146.065 334.4C146.065 333.344 145.857 332.448 145.441 331.712C145.025 330.976 144.481 330.432 143.809 330.08C143.137 329.712 142.409 329.528 141.625 329.528C140.825 329.528 140.089 329.712 139.417 330.08C138.761 330.432 138.233 330.976 137.833 331.712C137.433 332.448 137.233 333.344 137.233 334.4C137.233 335.472 137.425 336.376 137.809 337.112C138.209 337.848 138.737 338.4 139.393 338.768C140.049 339.12 140.769 339.296 141.553 339.296ZM156.592 327.632C157.728 327.632 158.72 327.88 159.568 328.376C160.432 328.872 161.072 329.496 161.488 330.248V327.848H163.696V341.288C163.696 342.488 163.44 343.552 162.928 344.48C162.416 345.424 161.68 346.16 160.72 346.688C159.776 347.216 158.672 347.48 157.408 347.48C155.68 347.48 154.24 347.072 153.088 346.256C151.936 345.44 151.256 344.328 151.048 342.92H153.208C153.448 343.72 153.944 344.36 154.696 344.84C155.448 345.336 156.352 345.584 157.408 345.584C158.608 345.584 159.584 345.208 160.336 344.456C161.104 343.704 161.488 342.648 161.488 341.288V338.528C161.056 339.296 160.416 339.936 159.568 340.448C158.72 340.96 157.728 341.216 156.592 341.216C155.424 341.216 154.36 340.928 153.4 340.352C152.456 339.776 151.712 338.968 151.168 337.928C150.624 336.888 150.352 335.704 150.352 334.376C150.352 333.032 150.624 331.856 151.168 330.848C151.712 329.824 152.456 329.032 153.4 328.472C154.36 327.912 155.424 327.632 156.592 327.632ZM161.488 334.4C161.488 333.408 161.288 332.544 160.888 331.808C160.488 331.072 159.944 330.512 159.256 330.128C158.584 329.728 157.84 329.528 157.024 329.528C156.208 329.528 155.464 329.72 154.792 330.104C154.12 330.488 153.584 331.048 153.184 331.784C152.784 332.52 152.584 333.384 152.584 334.376C152.584 335.384 152.784 336.264 153.184 337.016C153.584 337.752 154.12 338.32 154.792 338.72C155.464 339.104 156.208 339.296 157.024 339.296C157.84 339.296 158.584 339.104 159.256 338.72C159.944 338.32 160.488 337.752 160.888 337.016C161.288 336.264 161.488 335.392 161.488 334.4ZM174.914 325.712C174.498 325.712 174.146 325.568 173.858 325.28C173.57 324.992 173.426 324.64 173.426 324.224C173.426 323.808 173.57 323.456 173.858 323.168C174.146 322.88 174.498 322.736 174.914 322.736C175.314 322.736 175.65 322.88 175.922 323.168C176.21 323.456 176.354 323.808 176.354 324.224C176.354 324.64 176.21 324.992 175.922 325.28C175.65 325.568 175.314 325.712 174.914 325.712ZM175.97 327.848V341H173.786V327.848H175.97ZM186.1 327.608C187.7 327.608 188.996 328.096 189.988 329.072C190.98 330.032 191.476 331.424 191.476 333.248V341H189.316V333.56C189.316 332.248 188.988 331.248 188.332 330.56C187.676 329.856 186.78 329.504 185.644 329.504C184.492 329.504 183.572 329.864 182.884 330.584C182.212 331.304 181.876 332.352 181.876 333.728V341H179.692V327.848H181.876V329.72C182.308 329.048 182.892 328.528 183.628 328.16C184.38 327.792 185.204 327.608 186.1 327.608ZM213.106 327.848V341H210.922V339.056C210.506 339.728 209.922 340.256 209.17 340.64C208.434 341.008 207.618 341.192 206.722 341.192C205.698 341.192 204.778 340.984 203.962 340.568C203.146 340.136 202.498 339.496 202.018 338.648C201.554 337.8 201.322 336.768 201.322 335.552V327.848H203.482V335.264C203.482 336.56 203.81 337.56 204.466 338.264C205.122 338.952 206.018 339.296 207.154 339.296C208.322 339.296 209.242 338.936 209.914 338.216C210.586 337.496 210.922 336.448 210.922 335.072V327.848H213.106ZM221.449 341.216C220.441 341.216 219.537 341.048 218.737 340.712C217.937 340.36 217.305 339.88 216.841 339.272C216.377 338.648 216.121 337.936 216.073 337.136H218.329C218.393 337.792 218.697 338.328 219.241 338.744C219.801 339.16 220.529 339.368 221.425 339.368C222.257 339.368 222.913 339.184 223.393 338.816C223.873 338.448 224.113 337.984 224.113 337.424C224.113 336.848 223.857 336.424 223.345 336.152C222.833 335.864 222.041 335.584 220.969 335.312C219.993 335.056 219.193 334.8 218.569 334.544C217.961 334.272 217.433 333.88 216.985 333.368C216.553 332.84 216.337 332.152 216.337 331.304C216.337 330.632 216.537 330.016 216.937 329.456C217.337 328.896 217.905 328.456 218.641 328.136C219.377 327.8 220.217 327.632 221.161 327.632C222.617 327.632 223.793 328 224.689 328.736C225.585 329.472 226.065 330.48 226.129 331.76H223.945C223.897 331.072 223.617 330.52 223.105 330.104C222.609 329.688 221.937 329.48 221.089 329.48C220.305 329.48 219.681 329.648 219.217 329.984C218.753 330.32 218.521 330.76 218.521 331.304C218.521 331.736 218.657 332.096 218.929 332.384C219.217 332.656 219.569 332.88 219.985 333.056C220.417 333.216 221.009 333.4 221.761 333.608C222.705 333.864 223.473 334.12 224.065 334.376C224.657 334.616 225.161 334.984 225.577 335.48C226.009 335.976 226.233 336.624 226.249 337.424C226.249 338.144 226.049 338.792 225.649 339.368C225.249 339.944 224.681 340.4 223.945 340.736C223.225 341.056 222.393 341.216 221.449 341.216ZM230.46 325.712C230.044 325.712 229.692 325.568 229.404 325.28C229.116 324.992 228.972 324.64 228.972 324.224C228.972 323.808 229.116 323.456 229.404 323.168C229.692 322.88 230.044 322.736 230.46 322.736C230.86 322.736 231.196 322.88 231.468 323.168C231.756 323.456 231.9 323.808 231.9 324.224C231.9 324.64 231.756 324.992 231.468 325.28C231.196 325.568 230.86 325.712 230.46 325.712ZM231.516 327.848V341H229.332V327.848H231.516ZM241.647 327.608C243.247 327.608 244.543 328.096 245.535 329.072C246.527 330.032 247.023 331.424 247.023 333.248V341H244.863V333.56C244.863 332.248 244.535 331.248 243.879 330.56C243.223 329.856 242.327 329.504 241.191 329.504C240.039 329.504 239.119 329.864 238.431 330.584C237.759 331.304 237.423 332.352 237.423 333.728V341H235.239V327.848H237.423V329.72C237.855 329.048 238.439 328.528 239.175 328.16C239.927 327.792 240.751 327.608 241.647 327.608ZM256.014 327.632C257.15 327.632 258.142 327.88 258.99 328.376C259.854 328.872 260.494 329.496 260.91 330.248V327.848H263.118V341.288C263.118 342.488 262.862 343.552 262.35 344.48C261.838 345.424 261.102 346.16 260.142 346.688C259.198 347.216 258.094 347.48 256.83 347.48C255.102 347.48 253.662 347.072 252.51 346.256C251.358 345.44 250.678 344.328 250.47 342.92H252.63C252.87 343.72 253.366 344.36 254.118 344.84C254.87 345.336 255.774 345.584 256.83 345.584C258.03 345.584 259.006 345.208 259.758 344.456C260.526 343.704 260.91 342.648 260.91 341.288V338.528C260.478 339.296 259.838 339.936 258.99 340.448C258.142 340.96 257.15 341.216 256.014 341.216C254.846 341.216 253.782 340.928 252.822 340.352C251.878 339.776 251.134 338.968 250.59 337.928C250.046 336.888 249.774 335.704 249.774 334.376C249.774 333.032 250.046 331.856 250.59 330.848C251.134 329.824 251.878 329.032 252.822 328.472C253.782 327.912 254.846 327.632 256.014 327.632ZM260.91 334.4C260.91 333.408 260.71 332.544 260.31 331.808C259.91 331.072 259.366 330.512 258.678 330.128C258.006 329.728 257.262 329.528 256.446 329.528C255.63 329.528 254.886 329.72 254.214 330.104C253.542 330.488 253.006 331.048 252.606 331.784C252.206 332.52 252.006 333.384 252.006 334.376C252.006 335.384 252.206 336.264 252.606 337.016C253.006 337.752 253.542 338.32 254.214 338.72C254.886 339.104 255.63 339.296 256.446 339.296C257.262 339.296 258.006 339.104 258.678 338.72C259.366 338.32 259.91 337.752 260.31 337.016C260.71 336.264 260.91 335.392 260.91 334.4ZM284.535 327.848L276.615 347.192H274.359L276.951 340.856L271.647 327.848H274.071L278.199 338.504L282.279 327.848H284.535ZM292.467 341.216C291.235 341.216 290.115 340.936 289.107 340.376C288.115 339.816 287.331 339.024 286.755 338C286.195 336.96 285.915 335.76 285.915 334.4C285.915 333.056 286.203 331.872 286.779 330.848C287.371 329.808 288.171 329.016 289.179 328.472C290.187 327.912 291.315 327.632 292.563 327.632C293.811 327.632 294.939 327.912 295.947 328.472C296.955 329.016 297.747 329.8 298.323 330.824C298.915 331.848 299.211 333.04 299.211 334.4C299.211 335.76 298.907 336.96 298.299 338C297.707 339.024 296.899 339.816 295.875 340.376C294.851 340.936 293.715 341.216 292.467 341.216ZM292.467 339.296C293.251 339.296 293.987 339.112 294.675 338.744C295.363 338.376 295.915 337.824 296.331 337.088C296.763 336.352 296.979 335.456 296.979 334.4C296.979 333.344 296.771 332.448 296.355 331.712C295.939 330.976 295.395 330.432 294.723 330.08C294.051 329.712 293.323 329.528 292.539 329.528C291.739 329.528 291.003 329.712 290.331 330.08C289.675 330.432 289.147 330.976 288.747 331.712C288.347 332.448 288.147 333.344 288.147 334.4C288.147 335.472 288.339 336.376 288.723 337.112C289.123 337.848 289.651 338.4 290.307 338.768C290.963 339.12 291.683 339.296 292.467 339.296ZM313.746 327.848V341H311.562V339.056C311.146 339.728 310.562 340.256 309.81 340.64C309.074 341.008 308.258 341.192 307.362 341.192C306.338 341.192 305.418 340.984 304.602 340.568C303.786 340.136 303.138 339.496 302.658 338.648C302.194 337.8 301.962 336.768 301.962 335.552V327.848H304.122V335.264C304.122 336.56 304.45 337.56 305.106 338.264C305.762 338.952 306.658 339.296 307.794 339.296C308.962 339.296 309.882 338.936 310.554 338.216C311.226 337.496 311.562 336.448 311.562 335.072V327.848H313.746ZM319.618 329.984C320.002 329.232 320.546 328.648 321.25 328.232C321.97 327.816 322.842 327.608 323.866 327.608V329.864H323.29C320.842 329.864 319.618 331.192 319.618 333.848V341H317.434V327.848H319.618V329.984ZM331.97 334.376C331.97 333.032 332.242 331.856 332.786 330.848C333.33 329.824 334.074 329.032 335.018 328.472C335.978 327.912 337.05 327.632 338.234 327.632C339.258 327.632 340.21 327.872 341.09 328.352C341.97 328.816 342.642 329.432 343.106 330.2V323.24H345.314V341H343.106V338.528C342.674 339.312 342.034 339.96 341.186 340.472C340.338 340.968 339.346 341.216 338.21 341.216C337.042 341.216 335.978 340.928 335.018 340.352C334.074 339.776 333.33 338.968 332.786 337.928C332.242 336.888 331.97 335.704 331.97 334.376ZM343.106 334.4C343.106 333.408 342.906 332.544 342.506 331.808C342.106 331.072 341.562 330.512 340.874 330.128C340.202 329.728 339.458 329.528 338.642 329.528C337.826 329.528 337.082 329.72 336.41 330.104C335.738 330.488 335.202 331.048 334.802 331.784C334.402 332.52 334.202 333.384 334.202 334.376C334.202 335.384 334.402 336.264 334.802 337.016C335.202 337.752 335.738 338.32 336.41 338.72C337.082 339.104 337.826 339.296 338.642 339.296C339.458 339.296 340.202 339.104 340.874 338.72C341.562 338.32 342.106 337.752 342.506 337.016C342.906 336.264 343.106 335.392 343.106 334.4ZM361.004 333.92C361.004 334.336 360.98 334.776 360.932 335.24H350.42C350.5 336.536 350.94 337.552 351.74 338.288C352.556 339.008 353.54 339.368 354.692 339.368C355.636 339.368 356.42 339.152 357.044 338.72C357.684 338.272 358.132 337.68 358.388 336.944H360.74C360.388 338.208 359.684 339.24 358.628 340.04C357.572 340.824 356.26 341.216 354.692 341.216C353.444 341.216 352.324 340.936 351.332 340.376C350.356 339.816 349.588 339.024 349.028 338C348.468 336.96 348.188 335.76 348.188 334.4C348.188 333.04 348.46 331.848 349.004 330.824C349.548 329.8 350.308 329.016 351.284 328.472C352.276 327.912 353.412 327.632 354.692 327.632C355.94 327.632 357.044 327.904 358.004 328.448C358.964 328.992 359.7 329.744 360.212 330.704C360.74 331.648 361.004 332.72 361.004 333.92ZM358.748 333.464C358.748 332.632 358.564 331.92 358.196 331.328C357.828 330.72 357.324 330.264 356.684 329.96C356.06 329.64 355.364 329.48 354.596 329.48C353.492 329.48 352.548 329.832 351.764 330.536C350.996 331.24 350.556 332.216 350.444 333.464H358.748ZM366.551 329.648V337.4C366.551 338.04 366.687 338.496 366.959 338.768C367.231 339.024 367.703 339.152 368.375 339.152H369.983V341H368.015C366.799 341 365.887 340.72 365.279 340.16C364.671 339.6 364.367 338.68 364.367 337.4V329.648H362.663V327.848H364.367V324.536H366.551V327.848H369.983V329.648H366.551ZM371.813 334.376C371.813 333.032 372.085 331.856 372.629 330.848C373.173 329.824 373.917 329.032 374.861 328.472C375.821 327.912 376.885 327.632 378.053 327.632C379.205 327.632 380.205 327.88 381.053 328.376C381.901 328.872 382.533 329.496 382.949 330.248V327.848H385.157V341H382.949V338.552C382.517 339.32 381.869 339.96 381.005 340.472C380.157 340.968 379.165 341.216 378.029 341.216C376.861 341.216 375.805 340.928 374.861 340.352C373.917 339.776 373.173 338.968 372.629 337.928C372.085 336.888 371.813 335.704 371.813 334.376ZM382.949 334.4C382.949 333.408 382.749 332.544 382.349 331.808C381.949 331.072 381.405 330.512 380.717 330.128C380.045 329.728 379.301 329.528 378.485 329.528C377.669 329.528 376.925 329.72 376.253 330.104C375.581 330.488 375.045 331.048 374.645 331.784C374.245 332.52 374.045 333.384 374.045 334.376C374.045 335.384 374.245 336.264 374.645 337.016C375.045 337.752 375.581 338.32 376.253 338.72C376.925 339.104 377.669 339.296 378.485 339.296C379.301 339.296 380.045 339.104 380.717 338.72C381.405 338.32 381.949 337.752 382.349 337.016C382.749 336.264 382.949 335.392 382.949 334.4ZM389.976 325.712C389.56 325.712 389.208 325.568 388.92 325.28C388.632 324.992 388.488 324.64 388.488 324.224C388.488 323.808 388.632 323.456 388.92 323.168C389.208 322.88 389.56 322.736 389.976 322.736C390.376 322.736 390.712 322.88 390.984 323.168C391.272 323.456 391.416 323.808 391.416 324.224C391.416 324.64 391.272 324.992 390.984 325.28C390.712 325.568 390.376 325.712 389.976 325.712ZM391.032 327.848V341H388.848V327.848H391.032ZM396.938 323.24V341H394.754V323.24H396.938ZM405.317 341.216C404.309 341.216 403.405 341.048 402.605 340.712C401.805 340.36 401.173 339.88 400.709 339.272C400.245 338.648 399.989 337.936 399.941 337.136H402.197C402.261 337.792 402.565 338.328 403.109 338.744C403.669 339.16 404.397 339.368 405.293 339.368C406.125 339.368 406.781 339.184 407.261 338.816C407.741 338.448 407.981 337.984 407.981 337.424C407.981 336.848 407.725 336.424 407.213 336.152C406.701 335.864 405.909 335.584 404.837 335.312C403.861 335.056 403.061 334.8 402.437 334.544C401.829 334.272 401.301 333.88 400.853 333.368C400.421 332.84 400.205 332.152 400.205 331.304C400.205 330.632 400.405 330.016 400.805 329.456C401.205 328.896 401.773 328.456 402.509 328.136C403.245 327.8 404.085 327.632 405.029 327.632C406.485 327.632 407.661 328 408.557 328.736C409.453 329.472 409.933 330.48 409.997 331.76H407.813C407.765 331.072 407.485 330.52 406.973 330.104C406.477 329.688 405.805 329.48 404.957 329.48C404.173 329.48 403.549 329.648 403.085 329.984C402.621 330.32 402.389 330.76 402.389 331.304C402.389 331.736 402.525 332.096 402.797 332.384C403.085 332.656 403.437 332.88 403.853 333.056C404.285 333.216 404.877 333.4 405.629 333.608C406.573 333.864 407.341 334.12 407.933 334.376C408.525 334.616 409.029 334.984 409.445 335.48C409.877 335.976 410.101 336.624 410.117 337.424C410.117 338.144 409.917 338.792 409.517 339.368C409.117 339.944 408.549 340.4 407.813 340.736C407.093 341.056 406.261 341.216 405.317 341.216ZM413.896 341.144C413.48 341.144 413.128 341 412.84 340.712C412.552 340.424 412.408 340.072 412.408 339.656C412.408 339.24 412.552 338.888 412.84 338.6C413.128 338.312 413.48 338.168 413.896 338.168C414.296 338.168 414.632 338.312 414.904 338.6C415.192 338.888 415.336 339.24 415.336 339.656C415.336 340.072 415.192 340.424 414.904 340.712C414.632 341 414.296 341.144 413.896 341.144Z" fill="white"/>
<defs>
<clipPath id="clip0_40_54">
<path d="M0 20C0 8.9543 8.95431 0 20 0H540V780H20C8.95429 780 0 771.046 0 760V20Z" fill="white"/>
</clipPath>
</defs>
</svg>
