<svg width="150" height="150" viewBox="0 0 150 150" fill="none" xmlns="http://www.w3.org/2000/svg">
<circle cx="75" cy="75" r="75" fill="#F4FDD9"/>
<path d="M52.4265 70.681C52.4244 70.6591 52.4223 70.6361 52.4202 70.6142C52.3471 69.9638 52.2981 69.3155 52.2981 68.6735C52.2981 67.7423 52.3555 66.8528 52.4588 65.9988C52.7992 62.7365 53.745 59.8698 55.3401 57.4697C52.202 57.8059 50.0243 59.4292 46.407 62.1268C42.0339 65.3829 39.686 68.5879 39.1379 71.9953C39.1359 72.0037 39.1359 72.012 39.1359 72.0193C39.1359 72.0214 39.1359 72.0235 39.1359 72.0256C38.5627 75.6304 39.9533 79.6246 43.3889 84.2326C49.7999 92.841 63.8254 95.9385 69.9931 96.1525C62.7188 91.3116 53.5686 80.5558 52.4265 70.681Z" fill="#FAE58F"/>
<path d="M41.9806 85.2797C39.0544 81.3481 37.5198 77.7799 37.2995 74.4465C34.8776 77.6744 33.0151 82.486 32.0944 88.114C31.0609 94.4164 31.658 98.967 32.4838 99.8345C33.8148 101.229 38.5147 99.7552 43.4944 98.1913C47.3518 96.9803 51.6466 95.6388 56.0344 94.953C50.7342 92.9726 45.4079 89.8814 41.9806 85.2797Z" fill="#DABE92"/>
<path d="M98.5787 70.7708C98.585 70.7259 98.5891 70.6789 98.5954 70.634C98.6873 69.9753 98.7405 69.3186 98.7405 68.6724C98.7405 55.5301 86.7027 50.8667 76.3957 50.8667C66.1065 50.8667 54.101 55.5154 54.054 68.6035C54.054 68.6275 54.054 68.6505 54.054 68.6724C54.054 79.2258 66.427 91.9474 73.0592 95.809C73.149 95.8623 73.2137 95.9374 73.2795 96.0168C74.5207 96.6609 75.5939 97.0179 76.3957 97.0179C76.9072 97.0179 77.6088 96.7997 78.4408 96.4041C78.5097 96.3247 78.5901 96.2569 78.6851 96.2047C85.0543 92.7565 97.066 81.0934 98.5787 70.7708Z" fill="#FAE58F"/>
<path d="M107.916 84.2315C111.36 79.6088 112.75 75.6063 112.169 71.9932C111.617 68.5857 109.27 65.3818 104.994 62.1967L103.821 61.3135C101.381 59.4699 99.798 58.2756 97.6287 57.739C99.1278 60.0984 100.018 62.8899 100.341 66.0499C100.441 66.8862 100.493 67.761 100.493 68.6713C100.493 69.281 100.446 69.8948 100.377 70.5129C100.371 70.5515 100.367 70.5901 100.361 70.6308C99.2051 80.3365 89.87 90.8637 82.791 95.8424C89.8481 94.9853 102.298 91.7803 107.916 84.2315Z" fill="#FAE58F"/>
<path d="M119.269 88.9315C118.355 83.5342 116.417 78.8323 113.859 75.6785C113.38 78.659 111.893 81.8284 109.322 85.2797C105.844 89.9514 100.216 92.958 94.7108 94.8632C99.2907 95.5199 103.782 96.9292 107.801 98.1914C112.779 99.7552 117.472 101.231 118.81 99.8346C119.752 98.847 120.196 94.3987 119.269 88.9315Z" fill="#DABE92"/>
<path d="M76.2119 100.323C68.7852 100.323 50.6225 83.4612 50.6225 68.7331C50.6225 53.1948 64.4058 47.6807 76.2119 47.6807C88.016 47.6807 101.801 53.1938 101.801 68.7331C101.8 82.7701 83.2482 100.323 76.2119 100.323ZM76.2119 52.4181C66.1284 52.4181 55.3568 56.7036 55.3568 68.7331C55.3568 80.6749 71.3972 95.5888 76.2119 95.5888C79.8867 95.5888 97.065 80.8284 97.065 68.7331C97.0639 56.7046 86.2924 52.4181 76.2119 52.4181Z" fill="#434B56"/>
<path d="M116.789 103.7C114.137 103.7 110.736 102.632 106.645 101.347C102.223 99.9567 97.2132 98.3824 92.3233 97.9262C91.0226 97.804 90.0663 96.6494 90.1864 95.3486C90.3085 94.0479 91.4527 93.0916 92.766 93.2117C98.1528 93.7148 103.42 95.3685 108.064 96.829C111.438 97.8896 116.542 99.49 117.571 98.8417C118.812 97.0106 118.269 82.0017 111.355 75.3955C110.409 74.4925 110.374 72.9934 111.277 72.0475C112.18 71.1038 113.68 71.0683 114.625 71.9724C119.676 76.7965 121.591 84.3673 122.284 88.4491C122.579 90.1967 123.907 99.062 120.971 102.136C119.9 103.256 118.499 103.7 116.789 103.7Z" fill="#434B56"/>
<path d="M34.1343 103.7C32.4211 103.7 31.0233 103.256 29.9522 102.134C27.0124 99.062 28.3988 89.5296 28.7067 87.6495C29.426 83.2596 31.3855 75.1711 36.4383 70.3469C37.3841 69.4439 38.8853 69.4805 39.7863 70.4242C40.6893 71.37 40.6548 72.8691 39.709 73.7722C33.0893 80.0923 31.8835 96.2026 33.3941 98.8678C34.5237 99.4472 39.5315 97.875 42.8607 96.829C47.5053 95.3695 52.772 93.7159 58.1588 93.2117C59.4721 93.0916 60.6163 94.0458 60.7364 95.3487C60.8585 96.6494 59.9022 97.804 58.5994 97.9262C53.7116 98.3834 48.7006 99.9567 44.2794 101.347C40.1882 102.631 36.7859 103.7 34.1343 103.7Z" fill="#434B56"/>
<path d="M79.109 99.4055L78.8803 99.4034C77.804 99.3867 76.8738 98.6445 76.617 97.5984C76.3602 96.5524 76.8436 95.4656 77.7894 94.9541C83.5531 91.8327 97.064 79.1455 97.064 68.7331C97.064 64.3829 95.9281 60.822 93.6899 58.1515C93.0802 57.426 92.9643 56.406 93.3903 55.5625C93.8162 54.719 94.7036 54.2043 95.6515 54.268C99.9682 54.5394 102.328 56.3194 105.591 58.7841L106.747 59.6527C111.734 63.3702 114.493 67.2559 115.184 71.5371C115.916 76.0616 114.328 80.868 110.334 86.2298C102.27 97.0608 83.3599 99.4055 79.109 99.4055ZM100.608 60.9942C101.402 63.3212 101.801 65.906 101.801 68.7341C101.801 77.8969 94.1492 87.4992 87.4429 93.5771C94.0835 92.1135 102.349 89.0265 106.536 83.4027C109.727 79.1183 111.028 75.4854 110.512 72.2919C110.027 69.2863 107.87 66.3956 103.919 63.4517L102.738 62.5643C101.939 61.9609 101.248 61.4389 100.608 60.9942Z" fill="#434B56"/>
<path d="M70.4942 99.4755C63.9591 99.4755 48.0575 96.2371 40.6005 86.2297C36.6064 80.8649 35.0195 76.0595 35.7503 71.5371C36.4414 67.2558 39.2027 63.3671 44.1917 59.6527L44.2836 59.5859C48.6306 56.3444 51.6915 54.03 57.0376 54.2314C57.9427 54.2638 58.7508 54.8108 59.1172 55.6408C59.4847 56.4686 59.3458 57.4353 58.7602 58.1264C56.5031 60.7958 55.3589 64.3641 55.3589 68.7351C55.3589 78.7237 67.2506 90.8722 73.624 94.5835C74.2556 94.951 74.6847 95.5909 74.7797 96.3164C74.8674 96.9877 74.6659 97.66 74.2316 98.1695C73.7054 98.8971 73.0613 99.299 72.3003 99.3867C71.7543 99.4462 71.1519 99.4755 70.4942 99.4755ZM52.202 59.9523C50.7238 60.6883 49.1902 61.8325 47.1127 63.3817L47.0209 63.4506C43.0674 66.3925 40.9095 69.2853 40.4252 72.2908C39.9094 75.4843 41.2102 79.1173 44.3995 83.4017C49.2111 89.8596 58.615 93.0562 65.2703 94.2139C58.448 88.1725 50.6225 78.2122 50.6225 68.733C50.6215 65.4759 51.1518 62.5392 52.202 59.9523Z" fill="#434B56"/>
<path d="M72.4328 87.9512C71.8012 87.9512 71.1707 87.7007 70.7061 87.2027C56.6409 72.2083 64.1323 60.9148 64.4591 60.4419C65.1993 59.3656 66.6754 59.0921 67.7517 59.8322C68.8218 60.5703 69.0974 62.034 68.3718 63.1092C68.1171 63.4986 62.8462 71.9025 74.1606 83.9633C75.0532 84.9175 75.0072 86.4166 74.052 87.3113C73.5948 87.7393 73.0143 87.9512 72.4328 87.9512Z" fill="#434B56"/>
</svg>
