<svg width="150" height="150" viewBox="0 0 150 150" fill="none" xmlns="http://www.w3.org/2000/svg">
<circle cx="75" cy="75" r="75" fill="#FFE8C2"/>
<g clip-path="url(#clip0_317_24)">
<path fill-rule="evenodd" clip-rule="evenodd" d="M78.3777 28.8744L90.57 54.7598C91.0181 55.7376 91.9244 56.4275 92.9862 56.5992L120.249 60.7501C121.481 60.9891 122.483 61.8866 122.854 63.0857C123.226 64.2848 122.908 65.5912 122.027 66.4856L102.3 86.6345C101.538 87.4244 101.196 88.5285 101.377 89.6108L106.034 118.062C106.288 119.285 105.817 120.545 104.823 121.302C103.829 122.058 102.489 122.177 101.378 121.606L76.9933 108.174C76.0644 107.659 74.9357 107.659 74.0067 108.174L49.6222 121.606C48.5109 122.177 47.1708 122.058 46.1769 121.302C45.1829 120.545 44.712 119.285 44.966 118.062L49.6231 89.6108C49.8043 88.5285 49.4619 87.4244 48.7001 86.6345L28.9726 66.4856C28.0917 65.5912 27.7739 64.2848 28.1457 63.0857C28.5176 61.8867 29.5187 60.9892 30.7512 60.7502L58.0139 56.5992C59.0757 56.4275 59.9819 55.7376 60.4301 54.7598L72.6224 28.8744C73.1259 27.735 74.2543 27 75.5 27C76.7458 27 77.8742 27.735 78.3777 28.8744Z" fill="#F6AB27"/>
<path fill-rule="evenodd" clip-rule="evenodd" d="M56.088 90.6689C56.6037 87.5282 55.5982 84.3291 53.3783 82.0482L37.9427 66.2823L59.0007 63.0769C62.2188 62.5776 64.9767 60.508 66.3554 57.5576L75.5 38.1416L84.6413 57.552C86.0199 60.5048 88.7791 62.5766 91.9992 63.0768L113.057 66.2822L97.6184 82.0513C95.3998 84.3332 94.3955 87.5325 94.912 90.6729L98.4902 112.535L80.1547 102.435C77.2583 100.836 73.7439 100.836 70.8469 102.434L52.5098 112.535L56.088 90.6689Z" fill="#F4CD1E"/>
</g>
<defs>
<clipPath id="clip0_317_24">
<rect width="95" height="95" fill="white" transform="translate(28 27)"/>
</clipPath>
</defs>
</svg>
