<svg width="150" height="150" viewBox="0 0 150 150" fill="none" xmlns="http://www.w3.org/2000/svg">
<circle cx="75" cy="75" r="75" fill="#E4FFE1"/>
<path d="M62.0497 95.5171H55.3255V112.329H62.0497V95.5171Z" fill="#924B35"/>
<path d="M56.8563 97.0015H62.0497V95.5171H55.3255V112.329H56.8563V97.0015Z" fill="#843E2A"/>
<path d="M62.0497 87.9505V95.5171H55.3255H43.5563V112.33H36.8302V95.5171V87.9505V70.2976H43.5563V87.9505H62.0497Z" fill="#743629"/>
<path d="M38.424 97.0479V89.4813V71.8284H43.5563V70.2976H36.8302V87.9505V95.5171V112.33H38.424V97.0479Z" fill="#5E271E"/>
<path d="M49.2804 52.5314C50.826 54.077 50.62 57.3816 50.4048 60.6881C47.1058 60.8977 43.7993 61.1037 42.2537 59.5581C41.4021 58.7046 41.4967 57.2258 42.4652 56.2572C43.341 55.3796 44.1667 55.3258 45.3783 55.6597C45.0443 54.4481 45.1019 53.6187 45.9795 52.7411C46.9481 51.7725 48.4287 51.6798 49.2804 52.5314Z" fill="#EF3E5C"/>
<path d="M49.2804 52.5314C48.4287 51.6798 46.9481 51.7725 45.9795 52.7411C45.7351 52.9853 45.5564 53.2261 45.4301 53.4722C46.1849 53.2703 46.9777 53.4293 47.5177 53.9692C48.8536 55.3052 48.8805 57.9559 48.7243 60.7857C49.2791 60.7588 49.8417 60.7239 50.4048 60.6881C50.62 57.3816 50.826 54.077 49.2804 52.5314Z" fill="#E42A53"/>
<path d="M108.62 49.7481C109.767 50.8948 109.878 52.6482 108.869 53.6576C107.037 55.489 103.124 55.244 99.2092 54.9917C98.9605 51.0804 98.7156 47.1672 100.547 45.3358C101.556 44.3265 103.31 44.4378 104.456 45.5845C105.496 46.6235 105.558 47.6014 105.163 49.0375C106.598 48.6404 107.581 48.7091 108.62 49.7481Z" fill="#EF3E5C"/>
<path d="M102.263 46.8162C102.977 46.1028 104.061 45.952 105.041 46.3281C104.897 46.0789 104.705 45.8332 104.456 45.5842C103.31 44.4375 101.556 44.3262 100.547 45.3356C98.7158 47.1669 98.9607 51.0801 99.2094 54.9914C99.7552 55.0265 100.301 55.0614 100.841 55.0907C100.648 51.6663 100.648 48.4314 102.263 46.8162Z" fill="#E42A53"/>
<path d="M91.4032 65.2786H58.1254C58.1254 65.247 58.1254 65.0095 58.1254 64.978C58.1254 55.6709 65.6363 48.0134 74.7634 48.0134C83.8923 48.0134 91.4032 55.9715 91.4032 65.2786Z" fill="#F7B64C"/>
<path d="M76.7923 49.405C79.6856 49.405 82.4157 50.2053 84.7961 51.5934C81.9988 49.3607 78.5183 48.0134 74.7634 48.0134C65.6363 48.0134 58.1254 55.6709 58.1254 64.978C58.1254 65.0095 58.1254 65.247 58.1254 65.2786H60.1902C60.7496 56.4718 68.0245 49.405 76.7923 49.405Z" fill="#E29F3D"/>
<path d="M91.4849 65.2786C92.8709 65.2786 93.9935 66.4011 93.9935 67.7872C93.9935 68.4811 93.7133 69.1083 93.2587 69.5628C92.8041 70.0174 92.177 70.2976 91.4849 70.2976H58.0734C56.6874 70.2976 55.5648 69.1732 55.5648 67.7872C55.5648 67.0932 55.845 66.4661 56.2996 66.0133C56.7523 65.5587 57.3795 65.2786 58.0734 65.2786H58.1254H91.4032H91.4849Z" fill="#F78F4B"/>
<path d="M56.4766 69.3689C56.4766 68.675 56.7568 68.0479 57.2114 67.5951C57.6641 67.1405 58.2913 66.8604 58.9852 66.8604H59.0372H92.315H92.3966C92.9893 66.8604 93.5329 67.0669 93.9621 67.4101C93.7801 66.2037 92.7425 65.2786 91.4849 65.2786H91.4032H58.1254H58.0734C57.3795 65.2786 56.7523 65.5587 56.2996 66.0133C55.845 66.4661 55.5648 67.0932 55.5648 67.7872C55.5648 68.5806 55.9335 69.2869 56.508 69.7471C56.4894 69.6233 56.4766 69.4979 56.4766 69.3689Z" fill="#E5793E"/>
<path d="M99.0385 75.3406V82.0667H78.8621H72.1379H51.9615V75.3406H99.0385Z" fill="#FFC592"/>
<path d="M53.5851 76.9641H99.0385V75.3406H51.9615V82.0667H53.5851V76.9641Z" fill="#EFA873"/>
<path d="M78.8621 82.0667H72.1379V112.329H78.8621V82.0667Z" fill="#EFA873"/>
<path d="M73.715 83.5974H78.8621V82.0667H72.1379V112.329H73.715V83.5974Z" fill="#DB9565"/>
<path d="M95.6745 95.5171H88.9503V112.329H95.6745V95.5171Z" fill="#924B35"/>
<path d="M90.4811 97.0015H95.6745V95.5171H88.9503V112.329H90.4811V97.0015Z" fill="#843E2A"/>
<path d="M114.17 95.5171V112.33H107.444V95.5171H95.6745H88.9503V87.9505H107.444V70.2976H114.17V87.9505V95.5171Z" fill="#743629"/>
<path d="M107.444 70.2976V71.8213H112.715V89.4744V97.041V112.33H114.17V95.5171V87.9505V70.2976H107.444Z" fill="#5E271E"/>
<path d="M74.7634 48.9393C74.2511 48.9393 73.8356 48.5238 73.8356 48.0115V44.6494C73.8356 44.1371 74.2511 43.7217 74.7634 43.7217C75.2757 43.7217 75.6911 44.1371 75.6911 44.6494V48.0115C75.6909 48.5238 75.2757 48.9393 74.7634 48.9393Z" fill="#E29F3D"/>
<path d="M78.1255 44.646H71.4013C70.889 44.646 70.4735 44.2306 70.4735 43.7183C70.4735 43.206 70.889 42.7905 71.4013 42.7905H78.1255C78.638 42.7905 79.0532 43.206 79.0532 43.7183C79.0532 44.2306 78.638 44.646 78.1255 44.646Z" fill="#E29F3D"/>
<path d="M77.2106 61.137H60.3983C59.886 61.137 59.4706 60.7215 59.4706 60.2092C59.4706 59.6969 59.886 59.2815 60.3983 59.2815H77.2106C77.723 59.2815 78.1383 59.6969 78.1383 60.2092C78.1383 60.7215 77.7229 61.137 77.2106 61.137Z" fill="#E29F3D"/>
<path d="M114.17 113.257H78.8621C78.3496 113.257 77.9344 112.842 77.9344 112.33C77.9344 111.817 78.3496 111.402 78.8621 111.402H114.17C114.682 111.402 115.098 111.817 115.098 112.33C115.098 112.842 114.682 113.257 114.17 113.257Z" fill="#924B35"/>
<path d="M78.8621 113.257H36.8302C36.3179 113.257 35.9024 112.842 35.9024 112.33C35.9024 111.817 36.3179 111.402 36.8302 111.402H78.8621C79.3746 111.402 79.7898 111.817 79.7898 112.33C79.7898 112.842 79.3746 113.257 78.8621 113.257Z" fill="#924B35"/>
<path d="M62.0495 47.6869C61.6612 47.6869 61.2992 47.4411 61.1695 47.0524C61.0073 46.5664 61.27 46.041 61.7562 45.8788C61.7617 45.8767 62.8734 45.4808 63.173 44.5878C63.3816 43.9665 63.1684 43.1735 62.5394 42.2304C61.569 40.7753 61.2853 39.4295 61.6964 38.2305C62.3009 36.4678 64.1974 35.8173 64.2778 35.7906C64.7644 35.6284 65.2892 35.8912 65.4513 36.3771C65.613 36.8616 65.3526 37.385 64.8698 37.549C64.84 37.5598 63.7456 37.9563 63.4487 38.8414C63.24 39.4631 63.4536 40.2569 64.0833 41.201C65.053 42.6551 65.3363 44.0001 64.9253 45.1986C64.3206 46.9615 62.4238 47.612 62.3432 47.6389C62.2458 47.6715 62.1468 47.6869 62.0495 47.6869Z" fill="#F7B64C"/>
<path d="M86.4285 47.6869C86.0402 47.6869 85.6782 47.4411 85.5487 47.0526C85.3865 46.5664 85.6492 46.041 86.1352 45.879C86.1407 45.8769 87.252 45.481 87.5515 44.5885C87.7598 43.9675 87.5464 43.1741 86.9169 42.2309C85.9467 40.7755 85.6637 39.4299 86.0751 38.2309C86.6798 36.468 88.5762 35.8175 88.6568 35.7908C89.1431 35.6288 89.6682 35.8912 89.8303 36.3773C89.992 36.8618 89.7316 37.3854 89.2487 37.5492C89.2167 37.5605 88.1239 37.9574 87.827 38.8419C87.6183 39.4635 87.8313 40.2573 88.4605 41.2013C89.4307 42.6551 89.7146 44.0003 89.3036 45.1989C88.6994 46.9616 86.8026 47.6122 86.7222 47.6389C86.6248 47.6715 86.5259 47.6869 86.4285 47.6869Z" fill="#F7B64C"/>
</svg>
