<svg width="80" height="80" viewBox="0 0 80 80" fill="none" xmlns="http://www.w3.org/2000/svg">
<path d="M80 40C80 62.0914 62.0914 80 40 80C17.9086 80 0 62.0914 0 40C0 17.9086 17.9086 0 40 0C62.0914 0 80 17.9086 80 40Z" fill="#6A8D73"/>
<path d="M63.9062 62.7133H60.6344C61.3133 62.1972 61.9155 61.5872 62.4227 60.9016C65.875 56.1555 63.7469 52.1242 63.3414 51.4445L63.0109 49.2297C62.9926 49.1151 62.9329 49.0111 62.843 48.9377C62.7531 48.8642 62.6394 48.8264 62.5234 48.8312L59.5258 48.9836C59.4449 48.9874 59.3664 49.0123 59.2981 49.0559C59.2298 49.0995 59.1742 49.1602 59.1367 49.232C58.9398 48.9953 58.7383 48.7727 58.5367 48.5687C57.9576 47.9641 57.5365 47.2259 57.3109 46.4195L56.8094 44.6266L56.7883 44.5703C56.6212 44.1739 56.3771 43.8147 56.0701 43.5133C55.7631 43.212 55.3994 42.9746 55 42.8148V17.9688C54.9984 16.3531 54.3559 14.804 53.2135 13.6615C52.071 12.5191 50.5219 11.8766 48.9062 11.875H21.7188C20.1031 11.8766 18.554 12.5191 17.4115 13.6615C16.2691 14.804 15.6266 16.3531 15.625 17.9688V55.4688C15.6266 57.0844 16.2691 58.6335 17.4115 59.776C18.554 60.9184 20.1031 61.5609 21.7188 61.5625H40.068C40.3755 61.9736 40.7165 62.3585 41.0875 62.7133H40.4688C40.3441 62.7147 40.2249 62.7652 40.1372 62.8538C40.0495 62.9424 40.0002 63.062 40 63.1867C40.0013 64.496 40.522 65.7513 41.4478 66.6772C42.3737 67.603 43.629 68.1237 44.9383 68.125H59.4367C60.7467 68.1231 62.0024 67.6016 62.9282 66.6749C63.854 65.7482 64.3744 64.492 64.375 63.182C64.375 63.0577 64.3256 62.9385 64.2377 62.8506C64.1498 62.7627 64.0306 62.7133 63.9062 62.7133ZM55.9141 44.9102L56.4086 46.675C56.6762 47.6318 57.1771 48.5072 57.8664 49.2227C58.2984 49.6671 58.6935 50.1461 59.0477 50.6547L58.982 53.0969C58.406 54.1199 57.6915 55.0585 56.8586 55.8859C56.4578 54.5781 55.7008 53.3852 54.8148 52.7148C54.3289 52.3202 53.7251 52.0992 53.0992 52.0867C50.8516 52.0867 49.0422 55.1617 49.0422 57.707C49.0398 58.1949 49.1125 58.6803 49.2578 59.1461C49.1688 59.1555 49.0773 59.1602 48.9859 59.1648C48.2344 59.2024 47.4811 59.1899 46.7313 59.1273C45.6462 59.0347 44.5711 58.8488 43.518 58.5719C43.5987 56.268 44.2991 54.0285 45.5453 52.0891C45.5453 52.0867 45.5477 52.0844 45.55 52.082C46.2311 51.0257 47.0652 50.0763 48.025 49.2648C48.8677 48.5509 49.4984 47.6194 49.8484 46.5719L50.4508 44.7812C50.5947 44.4971 50.7967 44.2464 51.0437 44.0453L51.0789 44.0172C51.4904 43.693 51.9988 43.5164 52.5227 43.5156H53.7812C53.988 43.5147 54.1938 43.5423 54.393 43.5977C54.3977 43.6 54.4023 43.6 54.407 43.6023C54.7401 43.6936 55.0485 43.8585 55.3093 44.0848C55.5701 44.3112 55.7768 44.5932 55.9141 44.9102ZM50.2117 59.0523C50.0563 58.6209 49.9778 58.1656 49.9797 57.707C49.9797 55.6422 51.4492 53.0242 53.0992 53.0242C53.5195 53.0395 53.9231 53.1927 54.2477 53.4602C55.068 54.0812 55.7828 55.3141 56.0781 56.5867C55.8813 56.7508 55.675 56.9055 55.4664 57.0531C53.9032 58.1363 52.0996 58.8225 50.2117 59.0523ZM40.9375 29.2188H38.125C37.8764 29.2188 37.6379 29.12 37.4621 28.9442C37.2863 28.7683 37.1875 28.5299 37.1875 28.2812C37.1875 28.0326 37.2863 27.7942 37.4621 27.6183C37.6379 27.4425 37.8764 27.3438 38.125 27.3438H40.9375C41.1861 27.3438 41.4246 27.4425 41.6004 27.6183C41.7762 27.7942 41.875 28.0326 41.875 28.2812C41.875 28.5299 41.7762 28.7683 41.6004 28.9442C41.4246 29.12 41.1861 29.2188 40.9375 29.2188ZM37.1875 34.8438C37.1882 34.3467 37.3859 33.8702 37.7374 33.5187C38.0889 33.1672 38.5654 32.9694 39.0625 32.9688H40C40.4971 32.9694 40.9736 33.1672 41.3251 33.5187C41.6766 33.8702 41.8743 34.3467 41.875 34.8438V35.7812C41.8743 36.2783 41.6766 36.7548 41.3251 37.1063C40.9736 37.4578 40.4971 37.6556 40 37.6562H39.0625C38.5654 37.6556 38.0889 37.4578 37.7374 37.1063C37.3859 36.7548 37.1882 36.2783 37.1875 35.7812V34.8438ZM37.1875 43.75C37.1882 43.2529 37.3859 42.7764 37.7374 42.4249C38.0889 42.0734 38.5654 41.8757 39.0625 41.875H40C40.4971 41.8757 40.9736 42.0734 41.3251 42.4249C41.6766 42.7764 41.8743 43.2529 41.875 43.75V44.6875C41.8743 45.1846 41.6766 45.6611 41.3251 46.0126C40.9736 46.3641 40.4971 46.5618 40 46.5625H39.0625C38.5654 46.5618 38.0889 46.3641 37.7374 46.0126C37.3859 45.6611 37.1882 45.1846 37.1875 44.6875V43.75ZM37.1875 52.6562C37.1882 52.1592 37.3859 51.6827 37.7374 51.3312C38.0889 50.9797 38.5654 50.7819 39.0625 50.7812H40C40.4971 50.7819 40.9736 50.9797 41.3251 51.3312C41.6766 51.6827 41.8743 52.1592 41.875 52.6562V53.5938C41.8743 54.0908 41.6766 54.5673 41.3251 54.9188C40.9736 55.2703 40.4971 55.4681 40 55.4688H39.0625C38.5654 55.4681 38.0889 55.2703 37.7374 54.9188C37.3859 54.5673 37.1882 54.0908 37.1875 53.5938V52.6562ZM45.625 37.1875V27.3438H50.3125V37.1875H45.625ZM45.625 41.875H50.3125V43.443C50.0157 43.7116 49.773 44.0346 49.5977 44.3945C49.5875 44.4122 49.5796 44.4311 49.5742 44.4508L48.9578 46.2719C48.6644 47.1574 48.1324 47.9449 47.4203 48.5477C46.7643 49.1011 46.163 49.7164 45.625 50.3852V41.875ZM51.25 17.0312V24.0625C51.2496 24.1867 51.2001 24.3057 51.1123 24.3935C51.0245 24.4814 50.9055 24.5309 50.7812 24.5312H19.8438C19.7195 24.5309 19.6005 24.4814 19.5127 24.3935C19.4249 24.3057 19.3754 24.1867 19.375 24.0625V17.0312C19.3754 16.907 19.4249 16.788 19.5127 16.7002C19.6005 16.6124 19.7195 16.5629 19.8438 16.5625H50.7812C50.9055 16.5629 51.0245 16.6124 51.1123 16.7002C51.2001 16.788 51.2496 16.907 51.25 17.0312ZM28.75 52.6562C28.7507 52.1592 28.9484 51.6827 29.2999 51.3312C29.6514 50.9797 30.1279 50.7819 30.625 50.7812H31.5625C32.0596 50.7819 32.5361 50.9797 32.8876 51.3312C33.2391 51.6827 33.4368 52.1592 33.4375 52.6562V53.5938C33.4368 54.0908 33.2391 54.5673 32.8876 54.9188C32.5361 55.2703 32.0596 55.4681 31.5625 55.4688H30.625C30.1279 55.4681 29.6514 55.2703 29.2999 54.9188C28.9484 54.5673 28.7507 54.0908 28.75 53.5938V52.6562ZM33.4375 44.6875C33.4368 45.1846 33.2391 45.6611 32.8876 46.0126C32.5361 46.3641 32.0596 46.5618 31.5625 46.5625H30.625C30.1279 46.5618 29.6514 46.3641 29.2999 46.0126C28.9484 45.6611 28.7507 45.1846 28.75 44.6875V43.75C28.7507 43.2529 28.9484 42.7764 29.2999 42.4249C29.6514 42.0734 30.1279 41.8757 30.625 41.875H31.5625C32.0596 41.8757 32.5361 42.0734 32.8876 42.4249C33.2391 42.7764 33.4368 43.2529 33.4375 43.75V44.6875ZM33.4375 35.7812C33.4368 36.2783 33.2391 36.7548 32.8876 37.1063C32.5361 37.4578 32.0596 37.6556 31.5625 37.6562H30.625C30.1279 37.6556 29.6514 37.4578 29.2999 37.1063C28.9484 36.7548 28.7507 36.2783 28.75 35.7812V34.8438C28.7507 34.3467 28.9484 33.8702 29.2999 33.5187C29.6514 33.1672 30.1279 32.9694 30.625 32.9688H31.5625C32.0596 32.9694 32.5361 33.1672 32.8876 33.5187C33.2391 33.8702 33.4368 34.3467 33.4375 34.8438V35.7812ZM32.5 29.2188H29.6875C29.4389 29.2188 29.2004 29.12 29.0246 28.9442C28.8488 28.7683 28.75 28.5299 28.75 28.2812C28.75 28.0326 28.8488 27.7942 29.0246 27.6183C29.2004 27.4425 29.4389 27.3438 29.6875 27.3438H32.5C32.7486 27.3438 32.9871 27.4425 33.1629 27.6183C33.3387 27.7942 33.4375 28.0326 33.4375 28.2812C33.4375 28.5299 33.3387 28.7683 33.1629 28.9442C32.9871 29.12 32.7486 29.2188 32.5 29.2188ZM25 44.6875C24.9993 45.1846 24.8016 45.6611 24.4501 46.0126C24.0986 46.3641 23.6221 46.5618 23.125 46.5625H22.1875C21.6904 46.5618 21.2139 46.3641 20.8624 46.0126C20.5109 45.6611 20.3132 45.1846 20.3125 44.6875V43.75C20.3132 43.2529 20.5109 42.7764 20.8624 42.4249C21.2139 42.0734 21.6904 41.8757 22.1875 41.875H23.125C23.6221 41.8757 24.0986 42.0734 24.4501 42.4249C24.8016 42.7764 24.9993 43.2529 25 43.75V44.6875ZM25 35.7812C24.9993 36.2783 24.8016 36.7548 24.4501 37.1063C24.0986 37.4578 23.6221 37.6556 23.125 37.6562H22.1875C21.6904 37.6556 21.2139 37.4578 20.8624 37.1063C20.5109 36.7548 20.3132 36.2783 20.3125 35.7812V34.8438C20.3132 34.3467 20.5109 33.8702 20.8624 33.5187C21.2139 33.1672 21.6904 32.9694 22.1875 32.9688H23.125C23.6221 32.9694 24.0986 33.1672 24.4501 33.5187C24.8016 33.8702 24.9993 34.3467 25 34.8438V35.7812ZM24.0625 29.2188H21.25C21.0014 29.2188 20.7629 29.12 20.5871 28.9442C20.4113 28.7683 20.3125 28.5299 20.3125 28.2812C20.3125 28.0326 20.4113 27.7942 20.5871 27.6183C20.7629 27.4425 21.0014 27.3438 21.25 27.3438H24.0625C24.3111 27.3438 24.5496 27.4425 24.7254 27.6183C24.9012 27.7942 25 28.0326 25 28.2812C25 28.5299 24.9012 28.7683 24.7254 28.9442C24.5496 29.12 24.3111 29.2188 24.0625 29.2188ZM20.3125 52.6562C20.3132 52.1592 20.5109 51.6827 20.8624 51.3312C21.2139 50.9797 21.6904 50.7819 22.1875 50.7812H23.125C23.6221 50.7819 24.0986 50.9797 24.4501 51.3312C24.8016 51.6827 24.9993 52.1592 25 52.6562V53.5938C24.9993 54.0908 24.8016 54.5673 24.4501 54.9188C24.0986 55.2703 23.6221 55.4681 23.125 55.4688H22.1875C21.6904 55.4681 21.2139 55.2703 20.8624 54.9188C20.5109 54.5673 20.3132 54.0908 20.3125 53.5938V52.6562ZM40.6938 60.8313C40.6859 60.819 40.6773 60.8072 40.668 60.7961C40.6469 60.7656 40.6234 60.7352 40.6023 60.7023C40.5953 60.693 40.5859 60.6813 40.5766 60.6695L39.4984 59.3758L40.0984 58.443L41.9594 59.0758L42.0602 59.1086C42.0883 59.1203 42.3719 59.2258 42.8547 59.3664C44.0957 59.7201 45.368 59.9524 46.6539 60.0602C47.445 60.1281 48.2399 60.1414 49.0328 60.1C49.3305 60.0859 49.6258 60.0625 49.9141 60.0297H49.9281C49.9454 60.0293 49.9626 60.0277 49.9797 60.025C52.145 59.8176 54.2208 59.0574 56.0078 57.8172C56.3078 57.6063 56.6008 57.3789 56.882 57.1375C56.8933 57.1294 56.9036 57.12 56.9125 57.1094C57.0555 56.9898 57.1984 56.8609 57.3344 56.732C58.3351 55.773 59.1853 54.6683 59.8563 53.4555C59.8941 53.3889 59.915 53.314 59.9172 53.2375L59.9875 50.5703C59.9875 50.5516 59.9898 50.5328 59.9898 50.5141L60.0062 49.8977L62.1461 49.7898L62.4273 51.6789C62.4376 51.7489 62.4641 51.8155 62.5047 51.8734C62.6078 52.0281 65.0336 55.7195 61.6656 60.3508C60.9344 61.3072 60.0216 62.11 58.9797 62.7133H42.5242C41.8224 62.1821 41.2053 61.5475 40.6938 60.8313Z" fill="black"/>
<path d="M47.0312 23.125H48.4375C48.6861 23.125 48.9246 23.0262 49.1004 22.8504C49.2762 22.6746 49.375 22.4361 49.375 22.1875V18.9062C49.375 18.6576 49.2762 18.4192 49.1004 18.2433C48.9246 18.0675 48.6861 17.9688 48.4375 17.9688H47.0312C46.7826 17.9688 46.5442 18.0675 46.3683 18.2433C46.1925 18.4192 46.0938 18.6576 46.0938 18.9062V22.1875C46.0938 22.4361 46.1925 22.6746 46.3683 22.8504C46.5442 23.0262 46.7826 23.125 47.0312 23.125ZM47.0312 18.9062H48.4375V22.1875H47.0312V18.9062Z" fill="black"/>
<path d="M45.3906 23.125C45.5201 23.125 45.625 23.0201 45.625 22.8906C45.625 22.7612 45.5201 22.6562 45.3906 22.6562C45.2612 22.6562 45.1562 22.7612 45.1562 22.8906C45.1562 23.0201 45.2612 23.125 45.3906 23.125Z" fill="black"/>
<path d="M42.3438 23.125H43.75C43.9986 23.125 44.2371 23.0262 44.4129 22.8504C44.5887 22.6746 44.6875 22.4361 44.6875 22.1875V18.9062C44.6875 18.6576 44.5887 18.4192 44.4129 18.2433C44.2371 18.0675 43.9986 17.9688 43.75 17.9688H42.3438C42.0951 17.9688 41.8567 18.0675 41.6808 18.2433C41.505 18.4192 41.4062 18.6576 41.4062 18.9062V22.1875C41.4062 22.4361 41.505 22.6746 41.6808 22.8504C41.8567 23.0262 42.0951 23.125 42.3438 23.125ZM42.3438 18.9062H43.75V22.1875H42.3438V18.9062Z" fill="black"/>
<path d="M38.5938 23.125H40C40.2486 23.125 40.4871 23.0262 40.6629 22.8504C40.8387 22.6746 40.9375 22.4361 40.9375 22.1875V18.9062C40.9375 18.6576 40.8387 18.4192 40.6629 18.2433C40.4871 18.0675 40.2486 17.9688 40 17.9688H38.5938C38.3451 17.9688 38.1067 18.0675 37.9308 18.2433C37.755 18.4192 37.6562 18.6576 37.6562 18.9062V22.1875C37.6562 22.4361 37.755 22.6746 37.9308 22.8504C38.1067 23.0262 38.3451 23.125 38.5938 23.125ZM38.5938 18.9062H40V22.1875H38.5938V18.9062Z" fill="black"/>
<path d="M36.7188 23.125C36.843 23.1246 36.962 23.0751 37.0498 22.9873C37.1376 22.8995 37.1871 22.7805 37.1875 22.6562V18.4375C37.1875 18.3132 37.1381 18.194 37.0502 18.106C36.9623 18.0181 36.8431 17.9688 36.7188 17.9688C36.5944 17.9688 36.4752 18.0181 36.3873 18.106C36.2994 18.194 36.25 18.3132 36.25 18.4375V22.6562C36.2504 22.7805 36.2999 22.8995 36.3877 22.9873C36.4755 23.0751 36.5945 23.1246 36.7188 23.125Z" fill="black"/>
</svg>
