<svg width="150" height="150" viewBox="0 0 150 150" fill="none" xmlns="http://www.w3.org/2000/svg">
<circle cx="75" cy="75" r="75" fill="#FFE8C2"/>
<path d="M87.2351 74.5L87.3032 74.4501C89.174 73.0793 91.3335 72.1544 93.6165 71.746C95.8995 71.3375 98.2457 71.4565 100.476 72.0936L103.703 73.0156L106.672 70.0469L100.734 62.625L94.7969 64.1094L91.8281 59.6562L96.2812 53.7188L99.3569 54.665C104.231 56.1648 108.591 58.9923 111.949 62.8307C115.307 66.669 117.53 71.3666 118.368 76.397L118.39 76.529C118.44 76.826 118.429 77.13 118.357 77.4225C118.286 77.7151 118.156 77.9901 117.975 78.231L111.077 87.4282C109.322 89.7689 106.928 91.5538 104.184 92.569C101.44 93.5841 98.4612 93.7865 95.6049 93.1517L88.8594 92.3125L87.2351 74.5Z" fill="#F5D3BD"/>
<path d="M63.7649 74.5L63.6968 74.4501C61.826 73.0793 59.6665 72.1544 57.3835 71.746C55.1005 71.3375 52.7543 71.4565 50.5243 72.0936L47.2969 73.0156L44.3281 70.0469L50.2656 62.625L56.2031 64.1094L59.1719 59.6562L54.7188 53.7188L51.6431 54.665C46.7688 56.1648 42.4085 58.9923 39.0507 62.8307C35.6929 66.669 33.4702 71.3666 32.6318 76.397L32.6097 76.529C32.5602 76.826 32.5715 77.13 32.6428 77.4225C32.7142 77.7151 32.8441 77.9901 33.0248 78.231L39.9227 87.4282C41.6783 89.7689 44.0716 91.5538 46.8158 92.569C49.56 93.5841 52.5388 93.7865 55.3951 93.1517L62.1406 92.3125L63.7649 74.5Z" fill="#F5D3BD"/>
<path d="M102.219 84.8907H94.7969C94.4032 84.8907 94.0256 84.7343 93.7473 84.4559C93.4689 84.1775 93.3125 83.8 93.3125 83.4063C93.3125 83.0126 93.4689 82.6351 93.7473 82.3567C94.0256 82.0783 94.4032 81.9219 94.7969 81.9219H101.604L104.138 79.3879C104.416 79.1095 104.794 78.9531 105.188 78.9531C105.581 78.9531 105.959 79.1095 106.237 79.3879C106.516 79.6663 106.672 80.0438 106.672 80.4375C106.672 80.8312 106.516 81.2088 106.237 81.4872L103.268 84.4559C103.131 84.5938 102.967 84.7031 102.787 84.7777C102.607 84.8523 102.414 84.8907 102.219 84.8907Z" fill="#E8C8B3"/>
<path d="M56.2031 84.8907H48.7812C48.5863 84.8907 48.3933 84.8523 48.2132 84.7777C48.0331 84.7031 47.8694 84.5938 47.7316 84.4559L44.7629 81.4872C44.4845 81.2088 44.3281 80.8312 44.3281 80.4375C44.3281 80.0438 44.4845 79.6663 44.7629 79.3879C45.0412 79.1095 45.4188 78.9531 45.8125 78.9531C46.2062 78.9531 46.5837 79.1095 46.8621 79.3879L49.396 81.9219H56.2031C56.5968 81.9219 56.9744 82.0783 57.2527 82.3567C57.5311 82.6351 57.6875 83.0126 57.6875 83.4063C57.6875 83.8 57.5311 84.1775 57.2527 84.4559C56.9744 84.7343 56.5968 84.8907 56.2031 84.8907Z" fill="#E8C8B3"/>
<path d="M75.5 104.187L66.7782 97.9182C61.7767 94.3229 57.6847 89.6083 54.829 84.1506L54.7082 83.9196C54.1737 82.8981 53.9106 81.7565 53.9443 80.6041C53.9779 79.4518 54.3071 78.3274 54.9002 77.3388L54.906 77.329C55.6702 76.0556 56.7511 75.0018 58.0435 74.2702C59.3358 73.5386 60.7956 73.1541 62.2807 73.1542H62.7283C63.9438 73.1542 65.1455 73.4118 66.2541 73.9101C67.3628 74.4084 68.3533 75.136 69.1602 76.045L75.5 83.4062L81.84 76.0446C82.6469 75.1357 83.6374 74.408 84.7461 73.9097C85.8547 73.4115 87.0564 73.1538 88.2719 73.1538H88.7195C90.2046 73.1537 91.6644 73.5382 92.9567 74.2698C94.2491 75.0015 95.33 76.0552 96.0942 77.3286L96.1 77.3384C96.6931 78.327 97.0223 79.4514 97.0559 80.6037C97.0896 81.7561 96.8265 82.8978 96.292 83.9192L96.1712 84.1502C93.3155 89.6079 89.2235 94.3225 84.222 97.9178L75.5 104.187Z" fill="#F55648"/>
<path d="M68.8203 89.3438C70.05 89.3438 71.0469 88.3469 71.0469 87.1172C71.0469 85.8875 70.05 84.8906 68.8203 84.8906C67.5906 84.8906 66.5938 85.8875 66.5938 87.1172C66.5938 88.3469 67.5906 89.3438 68.8203 89.3438Z" fill="#A83B32"/>
<path d="M82.1797 89.3438C83.4094 89.3438 84.4062 88.3469 84.4062 87.1172C84.4062 85.8875 83.4094 84.8906 82.1797 84.8906C80.95 84.8906 79.9531 85.8875 79.9531 87.1172C79.9531 88.3469 80.95 89.3438 82.1797 89.3438Z" fill="#A83B32"/>
<path d="M78.4688 93.7969H72.5312C72.1376 93.7969 71.76 93.6405 71.4816 93.3621C71.2033 93.0837 71.0469 92.7062 71.0469 92.3125C71.0469 91.9188 71.2033 91.5413 71.4816 91.2629C71.76 90.9845 72.1376 90.8281 72.5312 90.8281H78.4688C78.8624 90.8281 79.24 90.9845 79.5184 91.2629C79.7967 91.5413 79.9531 91.9188 79.9531 92.3125C79.9531 92.7062 79.7967 93.0837 79.5184 93.3621C79.24 93.6405 78.8624 93.7969 78.4688 93.7969Z" fill="#A83B32"/>
<path d="M63.625 68.5625C63.3134 68.5624 63.0098 68.4644 62.757 68.2821C62.5043 68.0999 62.3153 67.8428 62.2169 67.5472L60.7325 63.094C60.608 62.7205 60.637 62.3129 60.813 61.9607C60.9891 61.6086 61.2979 61.3408 61.6714 61.2163C62.0449 61.0918 62.4525 61.1208 62.8047 61.2969C63.1568 61.4729 63.4246 61.7817 63.5491 62.1552L65.0335 66.6083C65.1079 66.8315 65.1283 67.0692 65.0928 67.3018C65.0574 67.5343 64.9672 67.7552 64.8296 67.946C64.692 68.1369 64.5111 68.2923 64.3016 68.3995C64.0922 68.5067 63.8603 68.5626 63.625 68.5625Z" fill="#F7BA61"/>
<path d="M69.561 70.0468C69.2924 70.0466 69.0289 69.9735 68.7986 69.8353C68.5683 69.6971 68.3799 69.499 68.2533 69.2621C68.1267 69.0252 68.0667 68.7585 68.0798 68.4902C68.0929 68.2219 68.1785 67.9623 68.3275 67.7388L71.2962 63.2857C71.5156 62.9604 71.8548 62.7353 72.2397 62.6594C72.6246 62.5835 73.0239 62.6631 73.3503 62.8807C73.6767 63.0983 73.9037 63.4363 73.9816 63.8208C74.0596 64.2053 73.9821 64.605 73.7662 64.9326L70.7975 69.3857C70.6619 69.5894 70.4781 69.7563 70.2623 69.8716C70.0466 69.987 69.8057 70.0472 69.561 70.0468Z" fill="#F7BA61"/>
<path d="M87.375 68.5625C87.1397 68.5626 86.9078 68.5067 86.6984 68.3995C86.4889 68.2923 86.3079 68.1369 86.1704 67.946C86.0328 67.7552 85.9426 67.5343 85.9071 67.3018C85.8717 67.0692 85.892 66.8315 85.9665 66.6083L87.4509 62.1552C87.5754 61.7817 87.8432 61.4729 88.1953 61.2969C88.5474 61.1208 88.9551 61.0918 89.3286 61.2163C89.7021 61.3408 90.0109 61.6086 90.1869 61.9607C90.363 62.3129 90.392 62.7205 90.2675 63.094L88.7831 67.5472C88.6847 67.8428 88.4957 68.0999 88.2429 68.2821C87.9902 68.4644 87.6866 68.5624 87.375 68.5625Z" fill="#F7BA61"/>
<path d="M81.439 70.0468C81.1943 70.0472 80.9534 69.987 80.7377 69.8716C80.5219 69.7563 80.3381 69.5893 80.2025 69.3857L77.2337 64.9326C77.1244 64.7704 77.0481 64.5883 77.0094 64.3965C76.9706 64.2048 76.9702 64.0073 77.008 63.8154C77.0458 63.6235 77.1212 63.441 77.2299 63.2783C77.3385 63.1156 77.4781 62.976 77.6409 62.8675C77.8036 62.759 77.9862 62.6837 78.1781 62.646C78.3701 62.6083 78.5676 62.6089 78.7592 62.6478C78.9509 62.6866 79.1331 62.763 79.2952 62.8724C79.4573 62.9819 79.5961 63.1224 79.7037 63.2857L82.6725 67.7388C82.8215 67.9622 82.9071 68.2219 82.9202 68.4902C82.9333 68.7584 82.8733 69.0252 82.7467 69.2621C82.6201 69.499 82.4316 69.6971 82.2013 69.8353C81.971 69.9734 81.7076 70.0466 81.439 70.0468Z" fill="#F7BA61"/>
<path d="M44.3281 44.8125H41.3594V47.7812H44.3281V44.8125Z" fill="#8ED2FF"/>
<path d="M44.3281 50.75H41.3594V53.7188H44.3281V50.75Z" fill="#8ED2FF"/>
<path d="M41.3594 47.7812H38.3906V50.75H41.3594V47.7812Z" fill="#8ED2FF"/>
<path d="M47.2969 47.7812H44.3281V50.75H47.2969V47.7812Z" fill="#8ED2FF"/>
<path d="M85.8906 43.3281H82.9219V46.2969H85.8906V43.3281Z" fill="#8ED2FF"/>
<path d="M85.8906 52.2344H82.9219V55.2031H85.8906V52.2344Z" fill="#8ED2FF"/>
<path d="M81.4375 47.7812H78.4688V50.75H81.4375V47.7812Z" fill="#8ED2FF"/>
<path d="M90.3438 47.7812H87.375V50.75H90.3438V47.7812Z" fill="#8ED2FF"/>
<path d="M68.8203 89.3438C70.05 89.3438 71.0469 88.3469 71.0469 87.1172C71.0469 85.8875 70.05 84.8906 68.8203 84.8906C67.5906 84.8906 66.5938 85.8875 66.5938 87.1172C66.5938 88.3469 67.5906 89.3438 68.8203 89.3438Z" fill="black"/>
<path d="M82.1797 89.3438C83.4094 89.3438 84.4062 88.3469 84.4062 87.1172C84.4062 85.8875 83.4094 84.8906 82.1797 84.8906C80.95 84.8906 79.9531 85.8875 79.9531 87.1172C79.9531 88.3469 80.95 89.3438 82.1797 89.3438Z" fill="black"/>
<path d="M119.854 76.2831L119.833 76.1532C118.949 70.8509 116.606 65.8994 113.067 61.8535C109.527 57.8077 104.931 54.8274 99.7935 53.2465L96.7178 52.3002C96.4257 52.2103 96.113 52.2128 95.8223 52.3072C95.5316 52.4017 95.2772 52.5836 95.0937 52.8281L90.6406 58.7656C90.4564 59.0113 90.3528 59.3081 90.3443 59.6151C90.3358 59.9221 90.4227 60.2242 90.5931 60.4797L93.5619 64.9328C93.7315 65.1879 93.976 65.3842 94.2618 65.4946C94.5475 65.605 94.8605 65.6242 95.1576 65.5494L100.171 64.296L104.684 69.9366L103.272 71.3485L100.883 70.6662C96.9497 69.5408 92.7403 69.8999 89.0546 71.675C88.9432 71.6713 88.8312 71.6694 88.7185 71.6693H88.2712C86.846 71.6698 85.437 71.9721 84.1371 72.5564C82.8372 73.1407 81.6758 73.9937 80.7293 75.0592L80.7144 75.0759L75.5 81.1316L70.2848 75.0752L70.27 75.0585C69.3235 73.9929 68.1621 73.14 66.8621 72.5557C65.5622 71.9714 64.1533 71.669 62.7281 71.6685H62.2807C62.1654 71.6685 62.0504 71.6706 61.9358 71.6749C58.2537 69.8982 54.0465 69.5389 50.1164 70.6655L47.7286 71.3477L46.317 69.9359L50.8295 64.2953L55.843 65.5487C56.1401 65.6234 56.453 65.6042 56.7387 65.4938C57.0245 65.3834 57.269 65.1871 57.4387 64.9321L60.4074 60.479C60.5778 60.2234 60.6647 59.9214 60.6562 59.6144C60.6477 59.3074 60.5442 59.0106 60.3599 58.7649L55.9068 52.8274C55.7234 52.5828 55.469 52.4009 55.1783 52.3064C54.8876 52.2119 54.5749 52.2094 54.2827 52.2993L51.2071 53.2456C46.0695 54.8263 41.4736 57.8064 37.9343 61.8519C34.395 65.8974 32.052 70.8486 31.168 76.1506L31.1456 76.2842C31.0641 76.7792 31.0834 77.2856 31.2023 77.773C31.3212 78.2604 31.5372 78.7188 31.8375 79.1207L38.7352 88.318C40.6585 90.8796 43.2775 92.8346 46.2803 93.9501C49.2831 95.0656 52.5432 95.2947 55.6725 94.6101L59.9898 93.9214C61.7921 95.8415 63.7753 97.5834 65.912 99.1228L74.6337 105.394C74.8861 105.575 75.1891 105.673 75.5 105.673C75.8109 105.673 76.1139 105.575 76.3663 105.394L85.0883 99.1243C87.225 97.5849 89.2082 95.843 91.0104 93.9228L95.3277 94.6116C98.457 95.2962 101.717 95.0671 104.72 93.9516C107.723 92.836 110.342 90.8811 112.265 88.3195L119.163 79.1223C119.463 78.72 119.679 78.2612 119.798 77.7733C119.917 77.2854 119.936 76.7785 119.854 76.2831ZM55.1613 91.6859C55.1318 91.6905 55.1023 91.6963 55.0731 91.7028C52.4955 92.2724 49.8084 92.0883 47.3325 91.1724C44.8566 90.2565 42.6966 88.6476 41.1102 86.5375L34.2121 77.3402C34.1523 77.26 34.1092 77.1686 34.0854 77.0715C34.0615 76.9743 34.0575 76.8734 34.0735 76.7746L34.096 76.6412C34.889 71.8827 36.9915 67.4391 40.1678 63.8082C43.3441 60.1773 47.4687 57.5026 52.0795 56.0839L54.1577 55.4445L57.3543 59.7065L55.5483 62.4155L50.6256 61.185C50.3499 61.116 50.0602 61.1276 49.7909 61.2184C49.5217 61.3092 49.2841 61.4754 49.1065 61.6973L43.169 69.1191C42.9408 69.4044 42.8258 69.7637 42.846 70.1285C42.8662 70.4932 43.0202 70.8376 43.2785 71.0959L46.2472 74.0647C46.4343 74.252 46.6681 74.3857 46.9244 74.4521C47.1807 74.5185 47.45 74.5151 47.7045 74.4423L50.933 73.5203C52.8994 72.9576 54.9668 72.8424 56.9835 73.1832C55.6102 74.0295 54.4595 75.1926 53.6279 76.575C52.6705 78.1827 52.2881 80.0681 52.5434 81.9219H49.396L46.8621 79.3878C46.5838 79.1095 46.2062 78.9531 45.8125 78.9531C45.4188 78.9531 45.0412 79.1095 44.7629 79.3878C44.4845 79.6662 44.3281 80.0438 44.3281 80.4375C44.3281 80.8312 44.4845 81.2087 44.7629 81.4871L47.7316 84.4559C47.8695 84.5937 48.0331 84.7031 48.2132 84.7776C48.3933 84.8522 48.5863 84.8906 48.7812 84.8906H53.2344C53.3323 84.8905 53.4299 84.8808 53.5259 84.8617C54.7161 87.127 56.1161 89.2758 57.7075 91.2797L55.1613 91.6859ZM83.3555 96.7129L75.5 102.359L67.6447 96.7129C62.8358 93.2477 58.8987 88.7117 56.1443 83.4632L56.0231 83.2318C55.609 82.4329 55.4058 81.5413 55.4331 80.6418C55.4603 79.7422 55.717 78.8646 56.1788 78.0922C56.8137 77.0408 57.7086 76.1707 58.7773 75.5656C59.846 74.9605 61.0526 74.6408 62.2807 74.6373H62.7281C63.7322 74.6379 64.7248 74.8508 65.6408 75.2621C66.5568 75.6733 67.3755 76.2735 68.0432 77.0234L74.3752 84.3759C74.5146 84.5377 74.6872 84.6676 74.8813 84.7566C75.0754 84.8456 75.2864 84.8917 75.5 84.8917C75.7135 84.8917 75.9246 84.8456 76.1187 84.7566C76.3128 84.6676 76.4854 84.5377 76.6248 84.3759L82.9567 77.0234C83.6246 76.2738 84.4434 75.6739 85.3594 75.263C86.2754 74.852 87.268 74.6394 88.2719 74.639H88.7193C89.9493 74.6429 91.1576 74.9638 92.2275 75.5708C93.2974 76.1777 94.1928 77.0501 94.8273 78.1039C95.2866 78.8755 95.5412 79.7516 95.5672 80.6492C95.5932 81.5468 95.3896 82.4362 94.9757 83.2331L94.8553 83.4636C92.101 88.7118 88.164 93.2477 83.3555 96.7129ZM116.788 77.3403L109.89 86.5375C108.303 88.6476 106.143 90.2566 103.668 91.1725C101.192 92.0884 98.5045 92.2725 95.9268 91.7028C95.8977 91.6963 95.8682 91.6905 95.8387 91.6859L93.2925 91.2797C94.877 89.2844 96.2716 87.1454 97.4584 84.8906H102.219C102.414 84.8906 102.607 84.8522 102.787 84.7776C102.967 84.7031 103.131 84.5937 103.268 84.4559L106.237 81.4871C106.516 81.2087 106.672 80.8312 106.672 80.4375C106.672 80.0438 106.516 79.6662 106.237 79.3878C105.959 79.1095 105.581 78.9531 105.187 78.9531C104.794 78.9531 104.416 79.1095 104.138 79.3878L101.604 81.9219H98.4562C98.711 80.0646 98.3269 78.1758 97.3671 76.5655C96.5371 75.1871 95.3891 74.0275 94.0191 73.1837C96.0353 72.8438 98.1019 72.959 100.068 73.5209L103.295 74.4428C103.55 74.5155 103.819 74.5189 104.076 74.4525C104.332 74.3861 104.566 74.2524 104.753 74.0653L107.722 71.0965C107.98 70.8382 108.134 70.4937 108.154 70.129C108.174 69.7643 108.059 69.4049 107.831 69.1197L101.893 61.6978C101.716 61.4759 101.478 61.3096 101.209 61.2186C100.94 61.1277 100.65 61.116 100.374 61.185L95.4517 62.4155L93.6457 59.7065L96.8423 55.4445L98.9205 56.0839C103.532 57.5026 107.656 60.1774 110.833 63.8086C114.009 67.4397 116.111 71.8837 116.904 76.6425L116.926 76.7724C116.942 76.8715 116.939 76.9729 116.915 77.0705C116.891 77.1681 116.848 77.2598 116.788 77.3403Z" fill="black"/>
<path d="M78.4688 90.8281H72.5312C72.1376 90.8281 71.76 90.9845 71.4816 91.2629C71.2033 91.5413 71.0469 91.9188 71.0469 92.3125C71.0469 92.7062 71.2033 93.0837 71.4816 93.3621C71.76 93.6405 72.1376 93.7969 72.5312 93.7969H78.4688C78.8624 93.7969 79.24 93.6405 79.5184 93.3621C79.7967 93.0837 79.9531 92.7062 79.9531 92.3125C79.9531 91.9188 79.7967 91.5413 79.5184 91.2629C79.24 90.9845 78.8624 90.8281 78.4688 90.8281Z" fill="black"/>
<path d="M62.2167 67.5477C62.3412 67.9212 62.609 68.2299 62.9611 68.406C63.3133 68.5821 63.7209 68.611 64.0944 68.4865C64.4679 68.362 64.7767 68.0943 64.9528 67.7421C65.1288 67.39 65.1578 66.9823 65.0333 66.6088L63.5489 62.1557C63.4873 61.9707 63.3898 61.7997 63.2621 61.6525C63.1344 61.5052 62.9789 61.3845 62.8045 61.2973C62.6301 61.2102 62.4403 61.1582 62.2459 61.1444C62.0514 61.1305 61.8561 61.1552 61.6712 61.2168C61.4862 61.2785 61.3153 61.3759 61.168 61.5037C61.0207 61.6314 60.9 61.7869 60.8129 61.9612C60.7257 62.1356 60.6737 62.3254 60.6599 62.5199C60.6461 62.7143 60.6707 62.9096 60.7323 63.0945L62.2167 67.5477Z" fill="black"/>
<path d="M68.739 69.7975C69.0666 70.0159 69.4675 70.0952 69.8535 70.0181C70.2395 69.9409 70.5791 69.7135 70.7975 69.386L73.7663 64.9328C73.9822 64.6053 74.0596 64.2056 73.9817 63.8211C73.9037 63.4366 73.6767 63.0986 73.3503 62.881C73.0239 62.6633 72.6246 62.5837 72.2397 62.6596C71.8548 62.7355 71.5156 62.9607 71.2963 63.2859L68.3275 67.7391C68.1091 68.0666 68.0298 68.4675 68.107 68.8535C68.1841 69.2396 68.4115 69.5791 68.739 69.7975Z" fill="black"/>
<path d="M86.9056 68.4865C87.0905 68.5482 87.2858 68.5728 87.4802 68.559C87.6747 68.5452 87.8645 68.4932 88.0389 68.406C88.2133 68.3188 88.3688 68.1982 88.4965 68.0509C88.6242 67.9036 88.7217 67.7326 88.7833 67.5477L90.2677 63.0945C90.3922 62.721 90.3632 62.3134 90.1871 61.9612C90.0111 61.6091 89.7023 61.3413 89.3288 61.2168C88.9553 61.0923 88.5476 61.1213 88.1955 61.2973C87.8434 61.4734 87.5756 61.7822 87.4511 62.1557L85.9667 66.6088C85.905 66.7937 85.8804 66.989 85.8942 67.1835C85.908 67.3779 85.96 67.5678 86.0472 67.7421C86.1344 67.9165 86.2551 68.072 86.4023 68.1997C86.5496 68.3274 86.7206 68.4249 86.9056 68.4865Z" fill="black"/>
<path d="M80.2025 69.386C80.4219 69.7112 80.7611 69.9364 81.146 70.0122C81.5309 70.0881 81.9302 70.0086 82.2566 69.7909C82.583 69.5733 82.81 69.2353 82.8879 68.8508C82.9658 68.4663 82.8884 68.0666 82.6725 67.739L79.7037 63.2859C79.5961 63.1226 79.4573 62.9822 79.2952 62.8727C79.1331 62.7632 78.9509 62.6869 78.7592 62.648C78.5676 62.6091 78.3701 62.6085 78.1781 62.6463C77.9862 62.684 77.8036 62.7593 77.6409 62.8678C77.4781 62.9763 77.3385 63.1159 77.2299 63.2785C77.1212 63.4412 77.0458 63.6238 77.008 63.8157C76.9702 64.0076 76.9706 64.205 77.0094 64.3968C77.0481 64.5885 77.1244 64.7707 77.2337 64.9328L80.2025 69.386Z" fill="black"/>
<path d="M44.3281 44.8125H41.3594V47.7812H44.3281V44.8125Z" fill="black"/>
<path d="M44.3281 50.75H41.3594V53.7188H44.3281V50.75Z" fill="black"/>
<path d="M41.3594 47.7812H38.3906V50.75H41.3594V47.7812Z" fill="black"/>
<path d="M47.2969 47.7812H44.3281V50.75H47.2969V47.7812Z" fill="black"/>
<path d="M85.8906 43.3281H82.9219V46.2969H85.8906V43.3281Z" fill="black"/>
<path d="M85.8906 52.2344H82.9219V55.2031H85.8906V52.2344Z" fill="black"/>
<path d="M81.4375 47.7812H78.4688V50.75H81.4375V47.7812Z" fill="black"/>
<path d="M90.3438 47.7812H87.375V50.75H90.3438V47.7812Z" fill="black"/>
</svg>
