<svg width="150" height="150" viewBox="0 0 150 150" fill="none" xmlns="http://www.w3.org/2000/svg">
<circle cx="75" cy="75" r="75" fill="#E4FFE1"/>
<path d="M86.2261 99.304L78.3322 91.5986C78.2862 91.554 78.2372 91.511 78.1853 91.4724L77.636 91.0701C77.0096 90.6842 76.2719 90.4808 75.5015 90.4808C74.7311 90.4808 73.9934 90.6857 73.2556 91.1458L72.8178 91.4739C72.7673 91.5125 72.7183 91.5555 72.6708 91.6001L64.7754 99.3054L61.9967 101.961C60.9324 102.865 59.6128 103.379 58.2041 103.379C56.6024 103.379 55.1047 102.748 53.987 101.605C51.7203 99.2772 51.7649 95.5381 54.0879 93.2715L54.747 92.6272L57.5584 89.8826L64.4385 83.1658C65.8664 81.7735 66.5507 80.0694 66.3622 78.3728C66.1796 76.7118 65.191 75.2497 63.5463 74.2329L55.1003 69.3315L51.6803 67.2801C49.5635 65.7155 48.8941 62.7869 50.2463 60.4564C51.1785 58.8458 52.9167 57.8454 54.7811 57.8454C55.6985 57.8454 56.6054 58.0903 57.404 58.5549L58.973 59.4648L62.3841 61.4435L68.4849 64.9837C69.331 65.4706 70.4888 65.003 70.7916 64.1243C70.9044 63.7962 71.0632 62.9546 70.0553 62.1649C67.6922 60.4148 66.337 57.7281 66.337 54.7935C66.337 49.7392 70.4502 45.6245 75.5045 45.6245C80.5588 45.6245 84.6705 49.7377 84.6705 54.7935C84.6705 57.7296 83.3153 60.4148 80.921 62.1887C79.9472 62.9546 80.1046 63.7962 80.2174 64.1243C80.4385 64.767 81.0471 65.1826 81.8383 65.1826H81.8428C82.0832 65.1722 82.3163 65.104 82.5241 64.9837L88.6234 61.445L92.0345 59.4663L93.6049 58.5549C94.4035 58.0903 95.309 57.8454 96.2263 57.8454C98.0907 57.8454 99.8289 58.8458 100.764 60.4549C102.113 62.7854 101.444 65.717 99.3272 67.2801L95.9057 69.3315L87.4225 74.2537C85.812 75.2482 84.8264 76.7103 84.6423 78.3713C84.4553 80.0694 85.1381 81.7705 86.566 83.1644L93.4476 89.8797L96.259 92.6243L96.9196 93.27C99.2426 95.5381 99.2886 99.2772 97.0205 101.602C95.9013 102.746 94.4021 103.377 92.8019 103.377C91.3962 103.377 90.0721 102.863 89.0078 101.962L86.2261 99.304Z" fill="#D5944B"/>
<path d="M55.6049 64.0545C55.21 65.9501 53.5416 67.2608 51.6802 67.2786L55.1002 69.33C56.7953 68.3681 58.0853 66.7116 58.5128 64.6587C58.9017 62.7824 60.5434 61.4836 62.381 61.4435L58.9699 59.4648C57.3045 60.4208 56.0249 62.0269 55.6049 64.0545Z" fill="white"/>
<path d="M92.4901 64.6572C92.9176 66.7116 94.2076 68.3667 95.9012 69.3285L99.3227 67.2771C97.4687 67.2578 95.7899 65.9501 95.398 64.0531C94.9765 62.0254 93.6969 60.4208 92.03 59.4634L88.6189 61.442C90.461 61.4836 92.1027 62.7824 92.4901 64.6572Z" fill="white"/>
<path d="M89.3566 99.4022C89.8435 98.4388 90.6777 97.7204 91.7049 97.3834C93.9983 96.6264 95.6385 94.7917 96.253 92.6245L93.4416 89.8799C93.8632 91.8734 92.7484 93.9144 90.7757 94.5631C88.9959 95.1479 87.5487 96.3904 86.7055 98.0647C86.5022 98.4655 86.3463 98.8811 86.2246 99.3027L89.0034 101.961C88.843 101.094 88.9529 100.204 89.3566 99.4022Z" fill="white"/>
<path d="M64.7754 99.3041C64.6551 98.8826 64.4978 98.4684 64.2974 98.0677C63.4528 96.3933 62.007 95.1494 60.2287 94.566C58.2545 93.9159 57.1383 91.8748 57.5598 89.8828L54.7484 92.6274C55.3629 94.7946 57.0061 96.6293 59.298 97.3863C60.3237 97.7233 61.1579 98.4402 61.6448 99.4051C62.0471 100.207 62.1584 101.096 61.9951 101.961L64.7754 99.3041Z" fill="white"/>
<path d="M71.7312 54.4478C72.8789 54.4478 73.8093 53.5173 73.8093 52.3696C73.8093 51.2219 72.8789 50.2915 71.7312 50.2915C70.5835 50.2915 69.6531 51.2219 69.6531 52.3696C69.6531 53.5173 70.5835 54.4478 71.7312 54.4478Z" fill="white"/>
<path d="M79.2719 54.4463C80.4196 54.4463 81.35 53.5159 81.35 52.3682C81.35 51.2204 80.4196 50.29 79.2719 50.29C78.1241 50.29 77.1937 51.2204 77.1937 52.3682C77.1937 53.5159 78.1241 54.4463 79.2719 54.4463Z" fill="white"/>
<path d="M75.5015 83.7925C77.1411 83.7925 78.4702 82.4633 78.4702 80.8237C78.4702 79.1841 77.1411 77.855 75.5015 77.855C73.8619 77.855 72.5327 79.1841 72.5327 80.8237C72.5327 82.4633 73.8619 83.7925 75.5015 83.7925Z" fill="#4DAF7C"/>
<path d="M75.5015 74.3071C77.1411 74.3071 78.4702 72.978 78.4702 71.3384C78.4702 69.6988 77.1411 68.3696 75.5015 68.3696C73.8619 68.3696 72.5327 69.6988 72.5327 71.3384C72.5327 72.978 73.8619 74.3071 75.5015 74.3071Z" fill="#4DAF7C"/>
<path d="M75.7019 61.7569L75.5015 61.7554C72.0073 61.6856 70.5036 59.8123 70.0153 59.0004C69.5922 58.2968 69.8178 57.3854 70.5214 56.9638C71.2206 56.5393 72.1349 56.7664 72.558 57.47C72.7925 57.8604 73.557 58.7599 75.6025 58.7896C77.6464 58.7599 78.4124 57.8604 78.6469 57.4685C79.0685 56.7649 79.9784 56.5393 80.685 56.9638C81.3871 57.3869 81.6127 58.2998 81.1896 59.0019C80.6983 59.8138 79.1902 61.6856 75.7019 61.7569Z" fill="#D64541"/>
<path d="M103.326 58.9646C101.862 56.4427 99.1402 54.8752 96.2219 54.8752C94.7835 54.8752 93.3615 55.2596 92.1102 55.984L87.6882 58.5505L87.1538 58.8607L86.8673 59.027C87.3691 57.6866 87.6377 56.2527 87.6377 54.7906C87.6377 48.0975 82.1945 42.6528 75.503 42.6528C68.8114 42.6528 63.3667 48.0975 63.3667 54.7906C63.3667 56.2497 63.6354 57.6851 64.1356 59.0255L63.5226 58.6692L63.3163 58.5505L58.8943 55.984C57.643 55.2596 56.2209 54.8752 54.7811 54.8752C51.8628 54.8752 49.1405 56.4427 47.6784 58.9646C45.4563 62.7958 46.6942 67.6883 50.4141 70.0262C50.4734 70.0648 50.5328 70.1063 50.5952 70.1435C50.6174 70.1568 50.6352 70.1717 50.6575 70.1835L62.0234 76.7756C62.8398 77.2803 63.3341 77.9617 63.4157 78.6935C63.5003 79.4638 63.1292 80.2966 62.3692 81.0373L52.0172 91.1429C48.523 94.554 48.4562 100.174 51.8658 103.675C53.5476 105.396 55.7994 106.344 58.207 106.344C60.5316 106.344 62.7299 105.449 64.3939 103.825L74.6866 93.7806L74.927 93.5951C75.2402 93.4036 75.88 93.4793 75.9691 93.5194L86.6105 103.824C88.276 105.449 90.4744 106.343 92.8004 106.343C95.208 106.343 97.4598 105.394 99.1416 103.673C102.553 100.175 102.484 94.5525 98.9888 91.1414L88.6352 81.0358C87.8752 80.2951 87.5041 79.4609 87.5902 78.692C87.6719 77.9602 88.1647 77.2789 88.944 76.7964L100.347 70.1821C100.383 70.1613 100.414 70.1375 100.449 70.1153C100.552 70.0514 100.651 69.9846 100.751 69.9193C104.343 67.5458 105.516 62.7409 103.326 58.9646ZM86.2261 99.304L78.3322 91.5986C78.2862 91.5541 78.2372 91.511 78.1852 91.4724L77.636 91.0702C77.0096 90.6842 76.2719 90.4809 75.5015 90.4809C74.7311 90.4809 73.9934 90.6857 73.2556 91.1459L72.8177 91.4739C72.7673 91.5125 72.7183 91.5556 72.6708 91.6001L64.7754 99.3055L61.9966 101.961C60.9323 102.865 59.6127 103.379 58.2041 103.379C56.6024 103.379 55.1047 102.748 53.987 101.605C51.7203 99.2773 51.7648 95.5381 54.0879 93.2715L54.747 92.6273L57.5584 89.8827L64.4384 83.1659C65.8664 81.7735 66.5507 80.0695 66.3622 78.3728C66.1796 76.7118 65.191 75.2497 63.5463 74.2329L55.1002 69.3315L51.6802 67.2801C49.5635 65.7156 48.8941 62.7869 50.2463 60.4564C51.1785 58.8459 52.9167 57.8454 54.7811 57.8454C55.6984 57.8454 56.6054 58.0903 57.404 58.5549L58.973 59.4649L62.3841 61.4435L68.4848 64.9838C69.3309 65.4706 70.4888 65.0031 70.7916 64.1243C70.9044 63.7963 71.0632 62.9546 70.0553 62.1649C67.6922 60.4149 66.337 57.7281 66.337 54.7935C66.337 49.7392 70.4502 45.6246 75.5045 45.6246C80.5588 45.6246 84.6705 49.7378 84.6705 54.7935C84.6705 57.7296 83.3152 60.4149 80.9209 62.1887C79.9472 62.9546 80.1045 63.7963 80.2173 64.1243C80.4385 64.7671 81.0471 65.1827 81.8383 65.1827C81.8398 65.1827 81.8413 65.1827 81.8427 65.1827C82.0832 65.1723 82.3162 65.104 82.5241 64.9838L88.6234 61.445L92.0345 59.4663L93.6049 58.5549C94.4035 58.0903 95.309 57.8454 96.2263 57.8454C98.0907 57.8454 99.8289 58.8459 100.764 60.4549C102.113 62.7854 101.444 65.7171 99.3272 67.2801L95.9057 69.3315L87.4225 74.2537C85.812 75.2482 84.8263 76.7103 84.6423 78.3713C84.4552 80.0695 85.1381 81.7706 86.566 83.1644L93.4476 89.8797L96.259 92.6243L96.9195 93.27C99.2426 95.5381 99.2886 99.2773 97.0205 101.602C95.9012 102.746 94.402 103.377 92.8019 103.377C91.3962 103.377 90.0721 102.864 89.0078 101.963L86.2261 99.304Z" fill="#26251D"/>
</svg>
