<svg width="40" height="40" viewBox="0 0 40 40" fill="none" xmlns="http://www.w3.org/2000/svg">
<circle cx="20" cy="20" r="20" fill="white"/>
<path d="M26.2969 9.72656C29.7627 9.72656 32.5791 12.5498 32.5791 16.0361C32.5791 17.8271 31.834 19.4404 30.6445 20.5889L20.5 30.8291L10.1777 20.4043C9.09766 19.2695 8.42773 17.7314 8.42773 16.0361C8.42773 12.5498 11.2373 9.72656 14.71 9.72656C17.3213 9.72656 19.5566 11.3262 20.5068 13.6094C21.4434 11.333 23.6855 9.72656 26.2969 9.72656ZM26.2969 8.67383C23.9863 8.67383 21.8672 9.75391 20.5 11.5313C19.1328 9.75391 17.0137 8.67383 14.7031 8.67383C10.6631 8.67383 7.375 11.9756 7.375 16.0361C7.375 17.9434 8.09961 19.7549 9.41895 21.1357L19.7549 31.5742L20.5 32.3262L21.2451 31.5742L31.3828 21.334C32.8184 19.9463 33.625 18.0596 33.625 16.0361C33.625 11.9756 30.3369 8.67383 26.2969 8.67383Z" fill="black"/>
</svg>
